<?xml version="1.0" encoding="UTF-8" standalone="no"?><svg xmlns="http://www.w3.org/2000/svg" xmlns:xlink="http://www.w3.org/1999/xlink" clip-rule="evenodd" stroke-miterlimit="4.00" viewBox="0 0 720 405"><desc>SVG generated by Keynote</desc><defs></defs><g transform="matrix(1.00, 0.00, -0.00, -1.00, 0.0, 405.0)"><path d="M 0.0 405.0 L 720.0 405.0 L 720.0 0.0 L 0.0 0.0 Z M 0.0 405.0 " fill="#FFFFFF"></path><path d="M 0.0 405.0 L 720.0 405.0 L 720.0 0.0 L 0.0 0.0 Z M 0.0 405.0 " fill="#FFFFFF"></path><text xml:space="preserve" font-family="Avenir-Heavy" font-weight="bold" font-size="20.0" fill="#3C9DE6" transform="matrix(1.00, 0.00, -0.00, -1.00, 399.0, 251.0)">S</text><text xml:space="preserve" font-family="Avenir-Heavy" font-weight="bold" font-size="20.0" fill="#3C9DE6" transform="matrix(1.00, 0.00, -0.00, -1.00, 410.5, 251.0)">t</text><text xml:space="preserve" font-family="Avenir-Heavy" font-weight="bold" font-size="20.0" fill="#3C9DE6" transform="matrix(1.00, 0.00, -0.00, -1.00, 418.3, 251.0)">e</text><text xml:space="preserve" font-family="Avenir-Heavy" font-weight="bold" font-size="20.0" fill="#3C9DE6" transform="matrix(1.00, 0.00, -0.00, -1.00, 429.7, 251.0)">p</text><text xml:space="preserve" font-family="Avenir-Heavy" font-weight="bold" font-size="20.0" fill="#3C9DE6" transform="matrix(1.00, 0.00, -0.00, -1.00, 442.3, 251.0)">h</text><text xml:space="preserve" font-family="Avenir-Heavy" font-weight="bold" font-size="20.0" fill="#3C9DE6" transform="matrix(1.00, 0.00, -0.00, -1.00, 453.8, 251.0)">a</text><text xml:space="preserve" font-family="Avenir-Heavy" font-weight="bold" font-size="20.0" fill="#3C9DE6" transform="matrix(1.00, 0.00, -0.00, -1.00, 464.6, 251.0)">n</text><text xml:space="preserve" font-family="Avenir-Heavy" font-weight="bold" font-size="20.0" fill="#3C9DE6" transform="matrix(1.00, 0.00, -0.00, -1.00, 476.0, 251.0)">i</text><text xml:space="preserve" font-family="Avenir-Heavy" font-weight="bold" font-size="20.0" fill="#3C9DE6" transform="matrix(1.00, 0.00, -0.00, -1.00, 481.2, 251.0)">e</text><text xml:space="preserve" font-family="Avenir-Heavy" font-weight="bold" font-size="20.0" fill="#3C9DE6" transform="matrix(1.00, 0.00, -0.00, -1.00, 492.7, 251.0)"> </text><text xml:space="preserve" font-family="Avenir-Roman" font-size="16.0" fill="#000000" transform="matrix(1.00, 0.00, -0.00, -1.00, 399.0, 218.0)">F</text><text xml:space="preserve" font-family="Avenir-Roman" font-size="16.0" fill="#000000" transform="matrix(1.00, 0.00, -0.00, -1.00, 407.9, 218.0)">u</text><text xml:space="preserve" font-family="Avenir-Roman" font-size="16.0" fill="#000000" transform="matrix(1.00, 0.00, -0.00, -1.00, 416.8, 218.0)">l</text><text xml:space="preserve" font-family="Avenir-Roman" font-size="16.0" fill="#000000" transform="matrix(1.00, 0.00, -0.00, -1.00, 420.6, 218.0)">l</text><text xml:space="preserve" font-family="Avenir-Roman" font-size="16.0" fill="#000000" transform="matrix(1.00, 0.00, -0.00, -1.00, 424.5, 218.0)">-</text><text xml:space="preserve" font-family="Avenir-Roman" font-size="16.0" fill="#000000" transform="matrix(1.00, 0.00, -0.00, -1.00, 429.8, 218.0)">s</text><text xml:space="preserve" font-family="Avenir-Roman" font-size="16.0" fill="#000000" transform="matrix(1.00, 0.00, -0.00, -1.00, 436.6, 218.0)">t</text><text xml:space="preserve" font-family="Avenir-Roman" font-size="16.0" fill="#000000" transform="matrix(1.00, 0.00, -0.00, -1.00, 442.3, 218.0)">a</text><text xml:space="preserve" font-family="Avenir-Roman" font-size="16.0" fill="#000000" transform="matrix(1.00, 0.00, -0.00, -1.00, 450.6, 218.0)">c</text><text xml:space="preserve" font-family="Avenir-Roman" font-size="16.0" fill="#000000" transform="matrix(1.00, 0.00, -0.00, -1.00, 458.3, 218.0)">k</text><text xml:space="preserve" font-family="Avenir-Roman" font-size="16.0" fill="#000000" transform="matrix(1.00, 0.00, -0.00, -1.00, 466.3, 218.0)"> </text><text xml:space="preserve" font-family="Avenir-Roman" font-size="16.0" fill="#000000" transform="matrix(1.00, 0.00, -0.00, -1.00, 470.7, 218.0)">w</text><text xml:space="preserve" font-family="Avenir-Roman" font-size="16.0" fill="#000000" transform="matrix(1.00, 0.00, -0.00, -1.00, 482.6, 218.0)">e</text><text xml:space="preserve" font-family="Avenir-Roman" font-size="16.0" fill="#000000" transform="matrix(1.00, 0.00, -0.00, -1.00, 491.5, 218.0)">b</text><text xml:space="preserve" font-family="Avenir-Roman" font-size="16.0" fill="#000000" transform="matrix(1.00, 0.00, -0.00, -1.00, 501.3, 218.0)"> </text><text xml:space="preserve" font-family="Avenir-Roman" font-size="16.0" fill="#000000" transform="matrix(1.00, 0.00, -0.00, -1.00, 505.7, 218.0)">d</text><text xml:space="preserve" font-family="Avenir-Roman" font-size="16.0" fill="#000000" transform="matrix(1.00, 0.00, -0.00, -1.00, 515.5, 218.0)">e</text><text xml:space="preserve" font-family="Avenir-Roman" font-size="16.0" fill="#000000" transform="matrix(1.00, 0.00, -0.00, -1.00, 524.4, 218.0)">v</text><text xml:space="preserve" font-family="Avenir-Roman" font-size="16.0" fill="#000000" transform="matrix(1.00, 0.00, -0.00, -1.00, 532.1, 218.0)">e</text><text xml:space="preserve" font-family="Avenir-Roman" font-size="16.0" fill="#000000" transform="matrix(1.00, 0.00, -0.00, -1.00, 541.0, 218.0)">l</text><text xml:space="preserve" font-family="Avenir-Roman" font-size="16.0" fill="#000000" transform="matrix(1.00, 0.00, -0.00, -1.00, 544.8, 218.0)">o</text><text xml:space="preserve" font-family="Avenir-Roman" font-size="16.0" fill="#000000" transform="matrix(1.00, 0.00, -0.00, -1.00, 554.3, 218.0)">p</text><text xml:space="preserve" font-family="Avenir-Roman" font-size="16.0" fill="#000000" transform="matrix(1.00, 0.00, -0.00, -1.00, 564.1, 218.0)">e</text><text xml:space="preserve" font-family="Avenir-Roman" font-size="16.0" fill="#000000" transform="matrix(1.00, 0.00, -0.00, -1.00, 573.0, 218.0)">r</text><text xml:space="preserve" font-family="Avenir-Roman" font-size="16.0" fill="#000000" transform="matrix(1.00, 0.00, -0.00, -1.00, 578.6, 218.0)"> </text><text xml:space="preserve" font-family="Avenir-Roman" font-size="16.0" fill="#000000" transform="matrix(1.00, 0.00, -0.00, -1.00, 399.0, 192.0)">@</text><text xml:space="preserve" font-family="Avenir-Roman" font-size="16.0" fill="#000000" transform="matrix(1.00, 0.00, -0.00, -1.00, 411.8, 192.0)">s</text><text xml:space="preserve" font-family="Avenir-Roman" font-size="16.0" fill="#000000" transform="matrix(1.00, 0.00, -0.00, -1.00, 418.6, 192.0)">i</text><text xml:space="preserve" font-family="Avenir-Roman" font-size="16.0" fill="#000000" transform="matrix(1.00, 0.00, -0.00, -1.00, 422.5, 192.0)">a</text><text xml:space="preserve" font-family="Avenir-Roman" font-size="16.0" fill="#000000" transform="matrix(1.00, 0.00, -0.00, -1.00, 430.8, 192.0)">w</text><text xml:space="preserve" font-family="Avenir-Roman" font-size="16.0" fill="#000000" transform="matrix(1.00, 0.00, -0.00, -1.00, 442.6, 192.0)">_</text><text xml:space="preserve" font-family="Avenir-Roman" font-size="16.0" fill="#000000" transform="matrix(1.00, 0.00, -0.00, -1.00, 450.6, 192.0)">s</text><text xml:space="preserve" font-family="Avenir-Roman" font-size="16.0" fill="#000000" transform="matrix(1.00, 0.00, -0.00, -1.00, 457.4, 192.0)">t</text><text xml:space="preserve" font-family="Avenir-Roman" font-size="16.0" fill="#000000" transform="matrix(1.00, 0.00, -0.00, -1.00, 463.1, 192.0)">e</text><text xml:space="preserve" font-family="Avenir-Roman" font-size="16.0" fill="#000000" transform="matrix(1.00, 0.00, -0.00, -1.00, 472.0, 192.0)">p</text><text xml:space="preserve" font-family="Avenir-Roman" font-size="16.0" fill="#000000" transform="matrix(1.00, 0.00, -0.00, -1.00, 481.7, 192.0)">h</text><text xml:space="preserve" font-family="Avenir-Roman" font-size="16.0" fill="#000000" transform="matrix(1.00, 0.00, -0.00, -1.00, 490.6, 192.0)">a</text><text xml:space="preserve" font-family="Avenir-Roman" font-size="16.0" fill="#000000" transform="matrix(1.00, 0.00, -0.00, -1.00, 498.9, 192.0)">n</text><text xml:space="preserve" font-family="Avenir-Roman" font-size="16.0" fill="#000000" transform="matrix(1.00, 0.00, -0.00, -1.00, 507.8, 192.0)">i</text><text xml:space="preserve" font-family="Avenir-Roman" font-size="16.0" fill="#000000" transform="matrix(1.00, 0.00, -0.00, -1.00, 511.7, 192.0)">e</text><text xml:space="preserve" font-family="Avenir-Roman" font-size="16.0" fill="#000000" transform="matrix(1.00, 0.00, -0.00, -1.00, 520.6, 192.0)"> </text><image xlink:href="B9A143B5CD4882E02557707F950E693E.png" width="141.00" height="45.00" transform="matrix(0.99, 0.00, -0.00, -1.00, 384.0, 172.0)"></image><image xlink:href="9963C9BBA0E85F3C77D0E7CFA0EFE45A.jpeg" width="345.00" height="405.00" transform="matrix(1.00, 0.00, -0.00, -1.00, 0.0, 405.0)"></image></g></svg>