<?xml version="1.0" encoding="UTF-8" standalone="no"?><svg xmlns="http://www.w3.org/2000/svg" xmlns:xlink="http://www.w3.org/1999/xlink" clip-rule="evenodd" stroke-miterlimit="4.00" viewBox="0 0 720 405"><desc>SVG generated by Keynote</desc><defs></defs><g transform="matrix(1.00, 0.00, -0.00, -1.00, 0.0, 405.0)"><path d="M 0.0 405.0 L 720.0 405.0 L 720.0 0.0 L 0.0 0.0 Z M 0.0 405.0 " fill="#FFFFFF"></path><g><clipPath id="clip-7"><path d="M 87.0 389.0 L 633.0 389.0 L 633.0 16.0 L 87.0 16.0 Z M 87.3 388.7 "></path></clipPath><g clip-path="url(#clip-7)"><image xlink:href="../../4FDC1F7F-2487-41C2-A8EE-769D6E064C32/assets/D31FF5730ECABBDA6850AA9504CB5449.png" width="546.00" height="372.00" transform="matrix(1.00, 0.00, -0.00, -1.00, 87.0, 389.0)"></image></g></g><text xml:space="preserve" font-family="Avenir-Heavy" font-weight="bold" font-size="24.0" fill="#000000" transform="matrix(1.00, 0.00, -0.00, -1.00, 43.0, 346.0)">E</text><text xml:space="preserve" font-family="Avenir-Heavy" font-weight="bold" font-size="24.0" fill="#000000" transform="matrix(1.00, 0.00, -0.00, -1.00, 57.7, 346.0)">x</text><text xml:space="preserve" font-family="Avenir-Heavy" font-weight="bold" font-size="24.0" fill="#000000" transform="matrix(1.00, 0.00, -0.00, -1.00, 70.6, 346.0)">a</text><text xml:space="preserve" font-family="Avenir-Heavy" font-weight="bold" font-size="24.0" fill="#000000" transform="matrix(1.00, 0.00, -0.00, -1.00, 83.4, 346.0)">m</text><text xml:space="preserve" font-family="Avenir-Heavy" font-weight="bold" font-size="24.0" fill="#000000" transform="matrix(1.00, 0.00, -0.00, -1.00, 104.3, 346.0)">p</text><text xml:space="preserve" font-family="Avenir-Heavy" font-weight="bold" font-size="24.0" fill="#000000" transform="matrix(1.00, 0.00, -0.00, -1.00, 119.4, 346.0)">l</text><text xml:space="preserve" font-family="Avenir-Heavy" font-weight="bold" font-size="24.0" fill="#000000" transform="matrix(1.00, 0.00, -0.00, -1.00, 125.7, 346.0)">e</text><text xml:space="preserve" font-family="Avenir-Heavy" font-weight="bold" font-size="24.0" fill="#000000" transform="matrix(1.00, 0.00, -0.00, -1.00, 139.5, 346.0)"> </text><text xml:space="preserve" font-family="Avenir-Heavy" font-weight="bold" font-size="24.0" fill="#000000" transform="matrix(1.00, 0.00, -0.00, -1.00, 146.6, 346.0)">2</text><text xml:space="preserve" font-family="Avenir-Heavy" font-weight="bold" font-size="24.0" fill="#000000" transform="matrix(1.00, 0.00, -0.00, -1.00, 160.8, 346.0)"> </text><text xml:space="preserve" font-family="Avenir-Roman" font-size="18.0" fill="#000000" transform="matrix(1.00, 0.00, -0.00, -1.00, 43.0, 315.0)">B</text><text xml:space="preserve" font-family="Avenir-Roman" font-size="18.0" fill="#000000" transform="matrix(1.00, 0.00, -0.00, -1.00, 54.3, 315.0)">a</text><text xml:space="preserve" font-family="Avenir-Roman" font-size="18.0" fill="#000000" transform="matrix(1.00, 0.00, -0.00, -1.00, 63.7, 315.0)">s</text><text xml:space="preserve" font-family="Avenir-Roman" font-size="18.0" fill="#000000" transform="matrix(1.00, 0.00, -0.00, -1.00, 71.3, 315.0)">i</text><text xml:space="preserve" font-family="Avenir-Roman" font-size="18.0" fill="#000000" transform="matrix(1.00, 0.00, -0.00, -1.00, 75.7, 315.0)">c</text><text xml:space="preserve" font-family="Avenir-Roman" font-size="18.0" fill="#000000" transform="matrix(1.00, 0.00, -0.00, -1.00, 84.3, 315.0)"> </text><text xml:space="preserve" font-family="Avenir-Roman" font-size="18.0" fill="#000000" transform="matrix(1.00, 0.00, -0.00, -1.00, 89.3, 315.0)">s</text><text xml:space="preserve" font-family="Avenir-Roman" font-size="18.0" fill="#000000" transform="matrix(1.00, 0.00, -0.00, -1.00, 97.0, 315.0)">h</text><text xml:space="preserve" font-family="Avenir-Roman" font-size="18.0" fill="#000000" transform="matrix(1.00, 0.00, -0.00, -1.00, 107.0, 315.0)">a</text><text xml:space="preserve" font-family="Avenir-Roman" font-size="18.0" fill="#000000" transform="matrix(1.00, 0.00, -0.00, -1.00, 116.4, 315.0)">l</text><text xml:space="preserve" font-family="Avenir-Roman" font-size="18.0" fill="#000000" transform="matrix(1.00, 0.00, -0.00, -1.00, 120.7, 315.0)">l</text><text xml:space="preserve" font-family="Avenir-Roman" font-size="18.0" fill="#000000" transform="matrix(1.00, 0.00, -0.00, -1.00, 125.0, 315.0)">o</text><text xml:space="preserve" font-family="Avenir-Roman" font-size="18.0" fill="#000000" transform="matrix(1.00, 0.00, -0.00, -1.00, 135.7, 315.0)">w</text><text xml:space="preserve" font-family="Avenir-Roman" font-size="18.0" fill="#000000" transform="matrix(1.00, 0.00, -0.00, -1.00, 149.1, 315.0)"> </text><text xml:space="preserve" font-family="Avenir-Roman" font-size="18.0" fill="#000000" transform="matrix(1.00, 0.00, -0.00, -1.00, 154.1, 315.0)">r</text><text xml:space="preserve" font-family="Avenir-Roman" font-size="18.0" fill="#000000" transform="matrix(1.00, 0.00, -0.00, -1.00, 160.1, 315.0)">e</text><text xml:space="preserve" font-family="Avenir-Roman" font-size="18.0" fill="#000000" transform="matrix(1.00, 0.00, -0.00, -1.00, 170.1, 315.0)">n</text><text xml:space="preserve" font-family="Avenir-Roman" font-size="18.0" fill="#000000" transform="matrix(1.00, 0.00, -0.00, -1.00, 180.1, 315.0)">d</text><text xml:space="preserve" font-family="Avenir-Roman" font-size="18.0" fill="#000000" transform="matrix(1.00, 0.00, -0.00, -1.00, 191.1, 315.0)">e</text><text xml:space="preserve" font-family="Avenir-Roman" font-size="18.0" fill="#000000" transform="matrix(1.00, 0.00, -0.00, -1.00, 201.1, 315.0)">r</text><text xml:space="preserve" font-family="Avenir-Roman" font-size="18.0" fill="#000000" transform="matrix(1.00, 0.00, -0.00, -1.00, 207.4, 315.0)"> </text><text xml:space="preserve" font-family="Avenir-Roman" font-size="18.0" fill="#000000" transform="matrix(1.00, 0.00, -0.00, -1.00, 212.4, 315.0)">t</text><text xml:space="preserve" font-family="Avenir-Roman" font-size="18.0" fill="#000000" transform="matrix(1.00, 0.00, -0.00, -1.00, 218.8, 315.0)">e</text><text xml:space="preserve" font-family="Avenir-Roman" font-size="18.0" fill="#000000" transform="matrix(1.00, 0.00, -0.00, -1.00, 228.8, 315.0)">s</text><text xml:space="preserve" font-family="Avenir-Roman" font-size="18.0" fill="#000000" transform="matrix(1.00, 0.00, -0.00, -1.00, 236.4, 315.0)">t</text></g></svg>