<?xml version="1.0" encoding="UTF-8" standalone="no"?><svg xmlns="http://www.w3.org/2000/svg" xmlns:xlink="http://www.w3.org/1999/xlink" clip-rule="evenodd" stroke-miterlimit="4.00" viewBox="0 0 720 405"><desc>SVG generated by Keynote</desc><defs></defs><g transform="matrix(1.00, 0.00, -0.00, -1.00, 0.0, 405.0)"><path d="M 0.0 405.0 L 720.0 405.0 L 720.0 0.0 L 0.0 0.0 Z M 0.0 405.0 " fill="#000000"></path><text xml:space="preserve" font-family="Courier" font-size="12.0" fill="#929292" transform="matrix(1.00, 0.00, -0.00, -1.00, 44.0, 279.0)">/</text><text xml:space="preserve" font-family="Courier" font-size="12.0" fill="#929292" transform="matrix(1.00, 0.00, -0.00, -1.00, 51.2, 279.0)">/</text><text xml:space="preserve" font-family="Courier" font-size="12.0" fill="#929292" transform="matrix(1.00, 0.00, -0.00, -1.00, 58.4, 279.0)"> </text><text xml:space="preserve" font-family="Courier" font-size="12.0" fill="#929292" transform="matrix(1.00, 0.00, -0.00, -1.00, 65.6, 279.0)">a</text><text xml:space="preserve" font-family="Courier" font-size="12.0" fill="#929292" transform="matrix(1.00, 0.00, -0.00, -1.00, 72.8, 279.0)">d</text><text xml:space="preserve" font-family="Courier" font-size="12.0" fill="#929292" transform="matrix(1.00, 0.00, -0.00, -1.00, 80.0, 279.0)">v</text><text xml:space="preserve" font-family="Courier" font-size="12.0" fill="#929292" transform="matrix(1.00, 0.00, -0.00, -1.00, 87.2, 279.0)">e</text><text xml:space="preserve" font-family="Courier" font-size="12.0" fill="#929292" transform="matrix(1.00, 0.00, -0.00, -1.00, 94.4, 279.0)">n</text><text xml:space="preserve" font-family="Courier" font-size="12.0" fill="#929292" transform="matrix(1.00, 0.00, -0.00, -1.00, 101.6, 279.0)">t</text><text xml:space="preserve" font-family="Courier" font-size="12.0" fill="#929292" transform="matrix(1.00, 0.00, -0.00, -1.00, 108.8, 279.0)">C</text><text xml:space="preserve" font-family="Courier" font-size="12.0" fill="#929292" transform="matrix(1.00, 0.00, -0.00, -1.00, 116.0, 279.0)">a</text><text xml:space="preserve" font-family="Courier" font-size="12.0" fill="#929292" transform="matrix(1.00, 0.00, -0.00, -1.00, 123.2, 279.0)">l</text><text xml:space="preserve" font-family="Courier" font-size="12.0" fill="#929292" transform="matrix(1.00, 0.00, -0.00, -1.00, 130.4, 279.0)">e</text><text xml:space="preserve" font-family="Courier" font-size="12.0" fill="#929292" transform="matrix(1.00, 0.00, -0.00, -1.00, 137.6, 279.0)">n</text><text xml:space="preserve" font-family="Courier" font-size="12.0" fill="#929292" transform="matrix(1.00, 0.00, -0.00, -1.00, 144.8, 279.0)">d</text><text xml:space="preserve" font-family="Courier" font-size="12.0" fill="#929292" transform="matrix(1.00, 0.00, -0.00, -1.00, 152.0, 279.0)">a</text><text xml:space="preserve" font-family="Courier" font-size="12.0" fill="#929292" transform="matrix(1.00, 0.00, -0.00, -1.00, 159.2, 279.0)">r</text><text xml:space="preserve" font-family="Courier" font-size="12.0" fill="#929292" transform="matrix(1.00, 0.00, -0.00, -1.00, 166.4, 279.0)">H</text><text xml:space="preserve" font-family="Courier" font-size="12.0" fill="#929292" transform="matrix(1.00, 0.00, -0.00, -1.00, 173.6, 279.0)">e</text><text xml:space="preserve" font-family="Courier" font-size="12.0" fill="#929292" transform="matrix(1.00, 0.00, -0.00, -1.00, 180.8, 279.0)">l</text><text xml:space="preserve" font-family="Courier" font-size="12.0" fill="#929292" transform="matrix(1.00, 0.00, -0.00, -1.00, 188.0, 279.0)">p</text><text xml:space="preserve" font-family="Courier" font-size="12.0" fill="#929292" transform="matrix(1.00, 0.00, -0.00, -1.00, 195.2, 279.0)">e</text><text xml:space="preserve" font-family="Courier" font-size="12.0" fill="#929292" transform="matrix(1.00, 0.00, -0.00, -1.00, 202.5, 279.0)">r</text><text xml:space="preserve" font-family="Courier" font-size="12.0" fill="#929292" transform="matrix(1.00, 0.00, -0.00, -1.00, 209.7, 279.0)">s</text><text xml:space="preserve" font-family="Courier" font-size="12.0" fill="#929292" transform="matrix(1.00, 0.00, -0.00, -1.00, 216.9, 279.0)">.</text><text xml:space="preserve" font-family="Courier" font-size="12.0" fill="#929292" transform="matrix(1.00, 0.00, -0.00, -1.00, 224.1, 279.0)">j</text><text xml:space="preserve" font-family="Courier" font-size="12.0" fill="#929292" transform="matrix(1.00, 0.00, -0.00, -1.00, 231.3, 279.0)">s</text><text xml:space="preserve" font-family="Courier-Bold" font-weight="bold" font-size="12.0" fill="#8ECBF1" transform="matrix(1.00, 0.00, -0.00, -1.00, 44.0, 251.0)">f</text><text xml:space="preserve" font-family="Courier-Bold" font-weight="bold" font-size="12.0" fill="#8ECBF1" transform="matrix(1.00, 0.00, -0.00, -1.00, 51.2, 251.0)">u</text><text xml:space="preserve" font-family="Courier-Bold" font-weight="bold" font-size="12.0" fill="#8ECBF1" transform="matrix(1.00, 0.00, -0.00, -1.00, 58.4, 251.0)">n</text><text xml:space="preserve" font-family="Courier-Bold" font-weight="bold" font-size="12.0" fill="#8ECBF1" transform="matrix(1.00, 0.00, -0.00, -1.00, 65.6, 251.0)">c</text><text xml:space="preserve" font-family="Courier-Bold" font-weight="bold" font-size="12.0" fill="#8ECBF1" transform="matrix(1.00, 0.00, -0.00, -1.00, 72.8, 251.0)">t</text><text xml:space="preserve" font-family="Courier-Bold" font-weight="bold" font-size="12.0" fill="#8ECBF1" transform="matrix(1.00, 0.00, -0.00, -1.00, 80.0, 251.0)">i</text><text xml:space="preserve" font-family="Courier-Bold" font-weight="bold" font-size="12.0" fill="#8ECBF1" transform="matrix(1.00, 0.00, -0.00, -1.00, 87.2, 251.0)">o</text><text xml:space="preserve" font-family="Courier-Bold" font-weight="bold" font-size="12.0" fill="#8ECBF1" transform="matrix(1.00, 0.00, -0.00, -1.00, 94.4, 251.0)">n</text><text xml:space="preserve" font-family="Courier" font-size="12.0" fill="#000000" transform="matrix(1.00, 0.00, -0.00, -1.00, 101.6, 251.0)"> </text><text xml:space="preserve" font-family="Courier" font-size="12.0" fill="#EB97F0" transform="matrix(1.00, 0.00, -0.00, -1.00, 108.8, 251.0)">i</text><text xml:space="preserve" font-family="Courier" font-size="12.0" fill="#EB97F0" transform="matrix(1.00, 0.00, -0.00, -1.00, 116.0, 251.0)">s</text><text xml:space="preserve" font-family="Courier" font-size="12.0" fill="#EB97F0" transform="matrix(1.00, 0.00, -0.00, -1.00, 123.2, 251.0)">B</text><text xml:space="preserve" font-family="Courier" font-size="12.0" fill="#EB97F0" transform="matrix(1.00, 0.00, -0.00, -1.00, 130.4, 251.0)">o</text><text xml:space="preserve" font-family="Courier" font-size="12.0" fill="#EB97F0" transform="matrix(1.00, 0.00, -0.00, -1.00, 137.6, 251.0)">x</text><text xml:space="preserve" font-family="Courier" font-size="12.0" fill="#EB97F0" transform="matrix(1.00, 0.00, -0.00, -1.00, 144.8, 251.0)">O</text><text xml:space="preserve" font-family="Courier" font-size="12.0" fill="#EB97F0" transform="matrix(1.00, 0.00, -0.00, -1.00, 152.0, 251.0)">p</text><text xml:space="preserve" font-family="Courier" font-size="12.0" fill="#EB97F0" transform="matrix(1.00, 0.00, -0.00, -1.00, 159.2, 251.0)">e</text><text xml:space="preserve" font-family="Courier" font-size="12.0" fill="#EB97F0" transform="matrix(1.00, 0.00, -0.00, -1.00, 166.4, 251.0)">n</text><text xml:space="preserve" font-family="Courier" font-size="12.0" fill="#929292" transform="matrix(1.00, 0.00, -0.00, -1.00, 173.6, 251.0)">(</text><text xml:space="preserve" font-family="Courier" font-size="12.0" fill="#929292" transform="matrix(1.00, 0.00, -0.00, -1.00, 180.8, 251.0)">{</text><text xml:space="preserve" font-family="Courier" font-size="12.0" fill="#D8D8D8" transform="matrix(1.00, 0.00, -0.00, -1.00, 188.0, 251.0)">c</text><text xml:space="preserve" font-family="Courier" font-size="12.0" fill="#D8D8D8" transform="matrix(1.00, 0.00, -0.00, -1.00, 195.2, 251.0)">u</text><text xml:space="preserve" font-family="Courier" font-size="12.0" fill="#D8D8D8" transform="matrix(1.00, 0.00, -0.00, -1.00, 202.4, 251.0)">r</text><text xml:space="preserve" font-family="Courier" font-size="12.0" fill="#D8D8D8" transform="matrix(1.00, 0.00, -0.00, -1.00, 209.6, 251.0)">r</text><text xml:space="preserve" font-family="Courier" font-size="12.0" fill="#D8D8D8" transform="matrix(1.00, 0.00, -0.00, -1.00, 216.8, 251.0)">e</text><text xml:space="preserve" font-family="Courier" font-size="12.0" fill="#D8D8D8" transform="matrix(1.00, 0.00, -0.00, -1.00, 224.0, 251.0)">n</text><text xml:space="preserve" font-family="Courier" font-size="12.0" fill="#D8D8D8" transform="matrix(1.00, 0.00, -0.00, -1.00, 231.2, 251.0)">t</text><text xml:space="preserve" font-family="Courier" font-size="12.0" fill="#D8D8D8" transform="matrix(1.00, 0.00, -0.00, -1.00, 238.4, 251.0)">D</text><text xml:space="preserve" font-family="Courier" font-size="12.0" fill="#D8D8D8" transform="matrix(1.00, 0.00, -0.00, -1.00, 245.6, 251.0)">a</text><text xml:space="preserve" font-family="Courier" font-size="12.0" fill="#D8D8D8" transform="matrix(1.00, 0.00, -0.00, -1.00, 252.8, 251.0)">y</text><text xml:space="preserve" font-family="Courier" font-size="12.0" fill="#D8D8D8" transform="matrix(1.00, 0.00, -0.00, -1.00, 260.0, 251.0)">I</text><text xml:space="preserve" font-family="Courier" font-size="12.0" fill="#D8D8D8" transform="matrix(1.00, 0.00, -0.00, -1.00, 267.2, 251.0)">n</text><text xml:space="preserve" font-family="Courier" font-size="12.0" fill="#D8D8D8" transform="matrix(1.00, 0.00, -0.00, -1.00, 274.5, 251.0)">D</text><text xml:space="preserve" font-family="Courier" font-size="12.0" fill="#D8D8D8" transform="matrix(1.00, 0.00, -0.00, -1.00, 281.7, 251.0)">e</text><text xml:space="preserve" font-family="Courier" font-size="12.0" fill="#D8D8D8" transform="matrix(1.00, 0.00, -0.00, -1.00, 288.9, 251.0)">c</text><text xml:space="preserve" font-family="Courier" font-size="12.0" fill="#D8D8D8" transform="matrix(1.00, 0.00, -0.00, -1.00, 296.1, 251.0)">e</text><text xml:space="preserve" font-family="Courier" font-size="12.0" fill="#D8D8D8" transform="matrix(1.00, 0.00, -0.00, -1.00, 303.3, 251.0)">m</text><text xml:space="preserve" font-family="Courier" font-size="12.0" fill="#D8D8D8" transform="matrix(1.00, 0.00, -0.00, -1.00, 310.5, 251.0)">b</text><text xml:space="preserve" font-family="Courier" font-size="12.0" fill="#D8D8D8" transform="matrix(1.00, 0.00, -0.00, -1.00, 317.7, 251.0)">e</text><text xml:space="preserve" font-family="Courier" font-size="12.0" fill="#D8D8D8" transform="matrix(1.00, 0.00, -0.00, -1.00, 324.9, 251.0)">r</text><text xml:space="preserve" font-family="Courier" font-size="12.0" fill="#929292" transform="matrix(1.00, 0.00, -0.00, -1.00, 332.0, 251.0)">,</text><text xml:space="preserve" font-family="Courier" font-size="12.0" fill="#000000" transform="matrix(1.00, 0.00, -0.00, -1.00, 339.2, 251.0)"> </text><text xml:space="preserve" font-family="Courier" font-size="12.0" fill="#D8D8D8" transform="matrix(1.00, 0.00, -0.00, -1.00, 346.4, 251.0)">b</text><text xml:space="preserve" font-family="Courier" font-size="12.0" fill="#D8D8D8" transform="matrix(1.00, 0.00, -0.00, -1.00, 353.7, 251.0)">o</text><text xml:space="preserve" font-family="Courier" font-size="12.0" fill="#D8D8D8" transform="matrix(1.00, 0.00, -0.00, -1.00, 360.9, 251.0)">x</text><text xml:space="preserve" font-family="Courier" font-size="12.0" fill="#D8D8D8" transform="matrix(1.00, 0.00, -0.00, -1.00, 368.1, 251.0)">N</text><text xml:space="preserve" font-family="Courier" font-size="12.0" fill="#D8D8D8" transform="matrix(1.00, 0.00, -0.00, -1.00, 375.3, 251.0)">u</text><text xml:space="preserve" font-family="Courier" font-size="12.0" fill="#D8D8D8" transform="matrix(1.00, 0.00, -0.00, -1.00, 382.5, 251.0)">m</text><text xml:space="preserve" font-family="Courier" font-size="12.0" fill="#D8D8D8" transform="matrix(1.00, 0.00, -0.00, -1.00, 389.7, 251.0)">b</text><text xml:space="preserve" font-family="Courier" font-size="12.0" fill="#D8D8D8" transform="matrix(1.00, 0.00, -0.00, -1.00, 396.9, 251.0)">e</text><text xml:space="preserve" font-family="Courier" font-size="12.0" fill="#D8D8D8" transform="matrix(1.00, 0.00, -0.00, -1.00, 404.1, 251.0)">r</text><text xml:space="preserve" font-family="Courier" font-size="12.0" fill="#929292" transform="matrix(1.00, 0.00, -0.00, -1.00, 411.3, 251.0)">}</text><text xml:space="preserve" font-family="Courier" font-size="12.0" fill="#929292" transform="matrix(1.00, 0.00, -0.00, -1.00, 418.5, 251.0)">)</text><text xml:space="preserve" font-family="Courier" font-size="12.0" fill="#929292" transform="matrix(1.00, 0.00, -0.00, -1.00, 425.7, 251.0)"> </text><text xml:space="preserve" font-family="Courier" font-size="12.0" fill="#929292" transform="matrix(1.00, 0.00, -0.00, -1.00, 432.9, 251.0)">{</text><text xml:space="preserve" font-family="Courier" font-size="12.0" fill="#000000" transform="matrix(1.00, 0.00, -0.00, -1.00, 44.0, 237.0)"> </text><text xml:space="preserve" font-family="Courier" font-size="12.0" fill="#000000" transform="matrix(1.00, 0.00, -0.00, -1.00, 51.2, 237.0)"> </text><text xml:space="preserve" font-family="Courier-Bold" font-weight="bold" font-size="12.0" fill="#8ECBF1" transform="matrix(1.00, 0.00, -0.00, -1.00, 58.4, 237.0)">r</text><text xml:space="preserve" font-family="Courier-Bold" font-weight="bold" font-size="12.0" fill="#8ECBF1" transform="matrix(1.00, 0.00, -0.00, -1.00, 65.6, 237.0)">e</text><text xml:space="preserve" font-family="Courier-Bold" font-weight="bold" font-size="12.0" fill="#8ECBF1" transform="matrix(1.00, 0.00, -0.00, -1.00, 72.8, 237.0)">t</text><text xml:space="preserve" font-family="Courier-Bold" font-weight="bold" font-size="12.0" fill="#8ECBF1" transform="matrix(1.00, 0.00, -0.00, -1.00, 80.0, 237.0)">u</text><text xml:space="preserve" font-family="Courier-Bold" font-weight="bold" font-size="12.0" fill="#8ECBF1" transform="matrix(1.00, 0.00, -0.00, -1.00, 87.2, 237.0)">r</text><text xml:space="preserve" font-family="Courier-Bold" font-weight="bold" font-size="12.0" fill="#8ECBF1" transform="matrix(1.00, 0.00, -0.00, -1.00, 94.4, 237.0)">n</text><text xml:space="preserve" font-family="Courier" font-size="12.0" fill="#000000" transform="matrix(1.00, 0.00, -0.00, -1.00, 101.6, 237.0)"> </text><text xml:space="preserve" font-family="Courier" font-size="12.0" fill="#D8D8D8" transform="matrix(1.00, 0.00, -0.00, -1.00, 108.8, 237.0)">c</text><text xml:space="preserve" font-family="Courier" font-size="12.0" fill="#D8D8D8" transform="matrix(1.00, 0.00, -0.00, -1.00, 116.0, 237.0)">u</text><text xml:space="preserve" font-family="Courier" font-size="12.0" fill="#D8D8D8" transform="matrix(1.00, 0.00, -0.00, -1.00, 123.2, 237.0)">r</text><text xml:space="preserve" font-family="Courier" font-size="12.0" fill="#D8D8D8" transform="matrix(1.00, 0.00, -0.00, -1.00, 130.4, 237.0)">r</text><text xml:space="preserve" font-family="Courier" font-size="12.0" fill="#D8D8D8" transform="matrix(1.00, 0.00, -0.00, -1.00, 137.6, 237.0)">e</text><text xml:space="preserve" font-family="Courier" font-size="12.0" fill="#D8D8D8" transform="matrix(1.00, 0.00, -0.00, -1.00, 144.8, 237.0)">n</text><text xml:space="preserve" font-family="Courier" font-size="12.0" fill="#D8D8D8" transform="matrix(1.00, 0.00, -0.00, -1.00, 152.0, 237.0)">t</text><text xml:space="preserve" font-family="Courier" font-size="12.0" fill="#D8D8D8" transform="matrix(1.00, 0.00, -0.00, -1.00, 159.2, 237.0)">D</text><text xml:space="preserve" font-family="Courier" font-size="12.0" fill="#D8D8D8" transform="matrix(1.00, 0.00, -0.00, -1.00, 166.4, 237.0)">a</text><text xml:space="preserve" font-family="Courier" font-size="12.0" fill="#D8D8D8" transform="matrix(1.00, 0.00, -0.00, -1.00, 173.6, 237.0)">y</text><text xml:space="preserve" font-family="Courier" font-size="12.0" fill="#D8D8D8" transform="matrix(1.00, 0.00, -0.00, -1.00, 180.8, 237.0)">I</text><text xml:space="preserve" font-family="Courier" font-size="12.0" fill="#D8D8D8" transform="matrix(1.00, 0.00, -0.00, -1.00, 188.0, 237.0)">n</text><text xml:space="preserve" font-family="Courier" font-size="12.0" fill="#D8D8D8" transform="matrix(1.00, 0.00, -0.00, -1.00, 195.2, 237.0)">D</text><text xml:space="preserve" font-family="Courier" font-size="12.0" fill="#D8D8D8" transform="matrix(1.00, 0.00, -0.00, -1.00, 202.4, 237.0)">e</text><text xml:space="preserve" font-family="Courier" font-size="12.0" fill="#D8D8D8" transform="matrix(1.00, 0.00, -0.00, -1.00, 209.6, 237.0)">c</text><text xml:space="preserve" font-family="Courier" font-size="12.0" fill="#D8D8D8" transform="matrix(1.00, 0.00, -0.00, -1.00, 216.8, 237.0)">e</text><text xml:space="preserve" font-family="Courier" font-size="12.0" fill="#D8D8D8" transform="matrix(1.00, 0.00, -0.00, -1.00, 224.0, 237.0)">m</text><text xml:space="preserve" font-family="Courier" font-size="12.0" fill="#D8D8D8" transform="matrix(1.00, 0.00, -0.00, -1.00, 231.3, 237.0)">b</text><text xml:space="preserve" font-family="Courier" font-size="12.0" fill="#D8D8D8" transform="matrix(1.00, 0.00, -0.00, -1.00, 238.5, 237.0)">e</text><text xml:space="preserve" font-family="Courier" font-size="12.0" fill="#D8D8D8" transform="matrix(1.00, 0.00, -0.00, -1.00, 245.7, 237.0)">r</text><text xml:space="preserve" font-family="Courier" font-size="12.0" fill="#000000" transform="matrix(1.00, 0.00, -0.00, -1.00, 252.8, 237.0)"> </text><text xml:space="preserve" font-family="Courier" font-size="12.0" fill="#95EC90" transform="matrix(1.00, 0.00, -0.00, -1.00, 260.0, 237.0)">&gt;</text><text xml:space="preserve" font-family="Courier" font-size="12.0" fill="#000000" transform="matrix(1.00, 0.00, -0.00, -1.00, 267.2, 237.0)"> </text><text xml:space="preserve" font-family="Courier" font-size="12.0" fill="#D8D8D8" transform="matrix(1.00, 0.00, -0.00, -1.00, 274.4, 237.0)">b</text><text xml:space="preserve" font-family="Courier" font-size="12.0" fill="#D8D8D8" transform="matrix(1.00, 0.00, -0.00, -1.00, 281.6, 237.0)">o</text><text xml:space="preserve" font-family="Courier" font-size="12.0" fill="#D8D8D8" transform="matrix(1.00, 0.00, -0.00, -1.00, 288.8, 237.0)">x</text><text xml:space="preserve" font-family="Courier" font-size="12.0" fill="#D8D8D8" transform="matrix(1.00, 0.00, -0.00, -1.00, 296.0, 237.0)">N</text><text xml:space="preserve" font-family="Courier" font-size="12.0" fill="#D8D8D8" transform="matrix(1.00, 0.00, -0.00, -1.00, 303.2, 237.0)">u</text><text xml:space="preserve" font-family="Courier" font-size="12.0" fill="#D8D8D8" transform="matrix(1.00, 0.00, -0.00, -1.00, 310.4, 237.0)">m</text><text xml:space="preserve" font-family="Courier" font-size="12.0" fill="#D8D8D8" transform="matrix(1.00, 0.00, -0.00, -1.00, 317.7, 237.0)">b</text><text xml:space="preserve" font-family="Courier" font-size="12.0" fill="#D8D8D8" transform="matrix(1.00, 0.00, -0.00, -1.00, 324.9, 237.0)">e</text><text xml:space="preserve" font-family="Courier" font-size="12.0" fill="#D8D8D8" transform="matrix(1.00, 0.00, -0.00, -1.00, 332.1, 237.0)">r</text><text xml:space="preserve" font-family="Courier" font-size="12.0" fill="#929292" transform="matrix(1.00, 0.00, -0.00, -1.00, 339.2, 237.0)">;</text><text xml:space="preserve" font-family="Courier" font-size="12.0" fill="#929292" transform="matrix(1.00, 0.00, -0.00, -1.00, 44.0, 223.0)">}</text><text xml:space="preserve" font-family="Avenir-Heavy" font-weight="bold" font-size="24.0" fill="#FFFFFF" transform="matrix(1.00, 0.00, -0.00, -1.00, 43.0, 346.0)">E</text><text xml:space="preserve" font-family="Avenir-Heavy" font-weight="bold" font-size="24.0" fill="#FFFFFF" transform="matrix(1.00, 0.00, -0.00, -1.00, 57.7, 346.0)">x</text><text xml:space="preserve" font-family="Avenir-Heavy" font-weight="bold" font-size="24.0" fill="#FFFFFF" transform="matrix(1.00, 0.00, -0.00, -1.00, 70.6, 346.0)">a</text><text xml:space="preserve" font-family="Avenir-Heavy" font-weight="bold" font-size="24.0" fill="#FFFFFF" transform="matrix(1.00, 0.00, -0.00, -1.00, 83.4, 346.0)">m</text><text xml:space="preserve" font-family="Avenir-Heavy" font-weight="bold" font-size="24.0" fill="#FFFFFF" transform="matrix(1.00, 0.00, -0.00, -1.00, 104.3, 346.0)">p</text><text xml:space="preserve" font-family="Avenir-Heavy" font-weight="bold" font-size="24.0" fill="#FFFFFF" transform="matrix(1.00, 0.00, -0.00, -1.00, 119.4, 346.0)">l</text><text xml:space="preserve" font-family="Avenir-Heavy" font-weight="bold" font-size="24.0" fill="#FFFFFF" transform="matrix(1.00, 0.00, -0.00, -1.00, 125.7, 346.0)">e</text><text xml:space="preserve" font-family="Avenir-Heavy" font-weight="bold" font-size="24.0" fill="#FFFFFF" transform="matrix(1.00, 0.00, -0.00, -1.00, 139.5, 346.0)"> </text><text xml:space="preserve" font-family="Avenir-Heavy" font-weight="bold" font-size="24.0" fill="#FFFFFF" transform="matrix(1.00, 0.00, -0.00, -1.00, 146.6, 346.0)">1</text><text xml:space="preserve" font-family="Avenir-Heavy" font-weight="bold" font-size="24.0" fill="#FFFFFF" transform="matrix(1.00, 0.00, -0.00, -1.00, 160.8, 346.0)"> </text><text xml:space="preserve" font-family="Avenir-Roman" font-size="18.0" fill="#FFFFFF" transform="matrix(1.00, 0.00, -0.00, -1.00, 43.0, 315.0)">J</text><text xml:space="preserve" font-family="Avenir-Roman" font-size="18.0" fill="#FFFFFF" transform="matrix(1.00, 0.00, -0.00, -1.00, 51.7, 315.0)">a</text><text xml:space="preserve" font-family="Avenir-Roman" font-size="18.0" fill="#FFFFFF" transform="matrix(1.00, 0.00, -0.00, -1.00, 61.0, 315.0)">v</text><text xml:space="preserve" font-family="Avenir-Roman" font-size="18.0" fill="#FFFFFF" transform="matrix(1.00, 0.00, -0.00, -1.00, 69.7, 315.0)">a</text><text xml:space="preserve" font-family="Avenir-Roman" font-size="18.0" fill="#FFFFFF" transform="matrix(1.00, 0.00, -0.00, -1.00, 79.0, 315.0)">s</text><text xml:space="preserve" font-family="Avenir-Roman" font-size="18.0" fill="#FFFFFF" transform="matrix(1.00, 0.00, -0.00, -1.00, 86.7, 315.0)">c</text><text xml:space="preserve" font-family="Avenir-Roman" font-size="18.0" fill="#FFFFFF" transform="matrix(1.00, 0.00, -0.00, -1.00, 95.4, 315.0)">r</text><text xml:space="preserve" font-family="Avenir-Roman" font-size="18.0" fill="#FFFFFF" transform="matrix(1.00, 0.00, -0.00, -1.00, 101.7, 315.0)">i</text><text xml:space="preserve" font-family="Avenir-Roman" font-size="18.0" fill="#FFFFFF" transform="matrix(1.00, 0.00, -0.00, -1.00, 106.0, 315.0)">p</text><text xml:space="preserve" font-family="Avenir-Roman" font-size="18.0" fill="#FFFFFF" transform="matrix(1.00, 0.00, -0.00, -1.00, 117.0, 315.0)">t</text><text xml:space="preserve" font-family="Avenir-Roman" font-size="18.0" fill="#FFFFFF" transform="matrix(1.00, 0.00, -0.00, -1.00, 123.4, 315.0)"> </text><text xml:space="preserve" font-family="Avenir-Roman" font-size="18.0" fill="#FFFFFF" transform="matrix(1.00, 0.00, -0.00, -1.00, 128.4, 315.0)">m</text><text xml:space="preserve" font-family="Avenir-Roman" font-size="18.0" fill="#FFFFFF" transform="matrix(1.00, 0.00, -0.00, -1.00, 143.7, 315.0)">e</text><text xml:space="preserve" font-family="Avenir-Roman" font-size="18.0" fill="#FFFFFF" transform="matrix(1.00, 0.00, -0.00, -1.00, 153.7, 315.0)">t</text><text xml:space="preserve" font-family="Avenir-Roman" font-size="18.0" fill="#FFFFFF" transform="matrix(1.00, 0.00, -0.00, -1.00, 160.1, 315.0)">h</text><text xml:space="preserve" font-family="Avenir-Roman" font-size="18.0" fill="#FFFFFF" transform="matrix(1.00, 0.00, -0.00, -1.00, 170.1, 315.0)">o</text><text xml:space="preserve" font-family="Avenir-Roman" font-size="18.0" fill="#FFFFFF" transform="matrix(1.00, 0.00, -0.00, -1.00, 180.8, 315.0)">d</text><text xml:space="preserve" font-family="Avenir-Roman" font-size="18.0" fill="#FFFFFF" transform="matrix(1.00, 0.00, -0.00, -1.00, 191.8, 315.0)">s</text><text xml:space="preserve" font-family="Avenir-Roman" font-size="18.0" fill="#FFFFFF" transform="matrix(1.00, 0.00, -0.00, -1.00, 199.4, 315.0)"> </text><text xml:space="preserve" font-family="Avenir-Roman" font-size="18.0" fill="#FFFFFF" transform="matrix(1.00, 0.00, -0.00, -1.00, 204.4, 315.0)">u</text><text xml:space="preserve" font-family="Avenir-Roman" font-size="18.0" fill="#FFFFFF" transform="matrix(1.00, 0.00, -0.00, -1.00, 214.4, 315.0)">n</text><text xml:space="preserve" font-family="Avenir-Roman" font-size="18.0" fill="#FFFFFF" transform="matrix(1.00, 0.00, -0.00, -1.00, 224.5, 315.0)">i</text><text xml:space="preserve" font-family="Avenir-Roman" font-size="18.0" fill="#FFFFFF" transform="matrix(1.00, 0.00, -0.00, -1.00, 228.8, 315.0)">t</text><text xml:space="preserve" font-family="Avenir-Roman" font-size="18.0" fill="#FFFFFF" transform="matrix(1.00, 0.00, -0.00, -1.00, 235.1, 315.0)"> </text><text xml:space="preserve" font-family="Avenir-Roman" font-size="18.0" fill="#FFFFFF" transform="matrix(1.00, 0.00, -0.00, -1.00, 240.1, 315.0)">t</text><text xml:space="preserve" font-family="Avenir-Roman" font-size="18.0" fill="#FFFFFF" transform="matrix(1.00, 0.00, -0.00, -1.00, 246.5, 315.0)">e</text><text xml:space="preserve" font-family="Avenir-Roman" font-size="18.0" fill="#FFFFFF" transform="matrix(1.00, 0.00, -0.00, -1.00, 256.5, 315.0)">s</text><text xml:space="preserve" font-family="Avenir-Roman" font-size="18.0" fill="#FFFFFF" transform="matrix(1.00, 0.00, -0.00, -1.00, 264.1, 315.0)">t</text></g></svg>