<?xml version="1.0" encoding="UTF-8" standalone="no"?><svg xmlns="http://www.w3.org/2000/svg" xmlns:xlink="http://www.w3.org/1999/xlink" clip-rule="evenodd" stroke-miterlimit="4.00" viewBox="0 0 720 405"><desc>SVG generated by Keynote</desc><defs></defs><g transform="matrix(1.00, 0.00, -0.00, -1.00, 0.0, 405.0)"><path d="M 0.0 405.0 L 720.0 405.0 L 720.0 0.0 L 0.0 0.0 Z M 0.0 405.0 " fill="#000000"></path><text xml:space="preserve" font-family="Avenir-Heavy" font-weight="bold" font-size="24.0" fill="#FFFFFF" transform="matrix(1.00, 0.00, -0.00, -1.00, 68.0, 311.0)">H</text><text xml:space="preserve" font-family="Avenir-Heavy" font-weight="bold" font-size="24.0" fill="#FFFFFF" transform="matrix(1.00, 0.00, -0.00, -1.00, 85.8, 311.0)">o</text><text xml:space="preserve" font-family="Avenir-Heavy" font-weight="bold" font-size="24.0" fill="#FFFFFF" transform="matrix(1.00, 0.00, -0.00, -1.00, 100.4, 311.0)">w</text><text xml:space="preserve" font-family="Avenir-Heavy" font-weight="bold" font-size="24.0" fill="#FFFFFF" transform="matrix(1.00, 0.00, -0.00, -1.00, 119.5, 311.0)"> </text><text xml:space="preserve" font-family="Avenir-Heavy" font-weight="bold" font-size="24.0" fill="#FFFFFF" transform="matrix(1.00, 0.00, -0.00, -1.00, 126.6, 311.0)">d</text><text xml:space="preserve" font-family="Avenir-Heavy" font-weight="bold" font-size="24.0" fill="#FFFFFF" transform="matrix(1.00, 0.00, -0.00, -1.00, 141.8, 311.0)">o</text><text xml:space="preserve" font-family="Avenir-Heavy" font-weight="bold" font-size="24.0" fill="#FFFFFF" transform="matrix(1.00, 0.00, -0.00, -1.00, 156.4, 311.0)"> </text><text xml:space="preserve" font-family="Avenir-Heavy" font-weight="bold" font-size="24.0" fill="#FFFFFF" transform="matrix(1.00, 0.00, -0.00, -1.00, 163.5, 311.0)">y</text><text xml:space="preserve" font-family="Avenir-Heavy" font-weight="bold" font-size="24.0" fill="#FFFFFF" transform="matrix(1.00, 0.00, -0.00, -1.00, 176.0, 311.0)">o</text><text xml:space="preserve" font-family="Avenir-Heavy" font-weight="bold" font-size="24.0" fill="#FFFFFF" transform="matrix(1.00, 0.00, -0.00, -1.00, 190.6, 311.0)">u</text><text xml:space="preserve" font-family="Avenir-Heavy" font-weight="bold" font-size="24.0" fill="#FFFFFF" transform="matrix(1.00, 0.00, -0.00, -1.00, 204.4, 311.0)"> </text><text xml:space="preserve" font-family="Avenir-Heavy" font-weight="bold" font-size="24.0" fill="#FFFFFF" transform="matrix(1.00, 0.00, -0.00, -1.00, 211.5, 311.0)">t</text><text xml:space="preserve" font-family="Avenir-Heavy" font-weight="bold" font-size="24.0" fill="#FFFFFF" transform="matrix(1.00, 0.00, -0.00, -1.00, 220.8, 311.0)">e</text><text xml:space="preserve" font-family="Avenir-Heavy" font-weight="bold" font-size="24.0" fill="#FFFFFF" transform="matrix(1.00, 0.00, -0.00, -1.00, 234.6, 311.0)">s</text><text xml:space="preserve" font-family="Avenir-Heavy" font-weight="bold" font-size="24.0" fill="#FFFFFF" transform="matrix(1.00, 0.00, -0.00, -1.00, 245.2, 311.0)">t</text><text xml:space="preserve" font-family="Avenir-Heavy" font-weight="bold" font-size="24.0" fill="#FFFFFF" transform="matrix(1.00, 0.00, -0.00, -1.00, 254.6, 311.0)"> </text><text xml:space="preserve" font-family="Avenir-Heavy" font-weight="bold" font-size="24.0" fill="#FFFFFF" transform="matrix(1.00, 0.00, -0.00, -1.00, 261.7, 311.0)">R</text><text xml:space="preserve" font-family="Avenir-Heavy" font-weight="bold" font-size="24.0" fill="#FFFFFF" transform="matrix(1.00, 0.00, -0.00, -1.00, 276.8, 311.0)">e</text><text xml:space="preserve" font-family="Avenir-Heavy" font-weight="bold" font-size="24.0" fill="#FFFFFF" transform="matrix(1.00, 0.00, -0.00, -1.00, 290.6, 311.0)">a</text><text xml:space="preserve" font-family="Avenir-Heavy" font-weight="bold" font-size="24.0" fill="#FFFFFF" transform="matrix(1.00, 0.00, -0.00, -1.00, 303.5, 311.0)">c</text><text xml:space="preserve" font-family="Avenir-Heavy" font-weight="bold" font-size="24.0" fill="#FFFFFF" transform="matrix(1.00, 0.00, -0.00, -1.00, 315.0, 311.0)">t</text><text xml:space="preserve" font-family="Avenir-Heavy" font-weight="bold" font-size="24.0" fill="#FFFFFF" transform="matrix(1.00, 0.00, -0.00, -1.00, 324.4, 311.0)"> </text><text xml:space="preserve" font-family="Avenir-Heavy" font-weight="bold" font-size="24.0" fill="#FFFFFF" transform="matrix(1.00, 0.00, -0.00, -1.00, 331.5, 311.0)">c</text><text xml:space="preserve" font-family="Avenir-Heavy" font-weight="bold" font-size="24.0" fill="#FFFFFF" transform="matrix(1.00, 0.00, -0.00, -1.00, 343.0, 311.0)">o</text><text xml:space="preserve" font-family="Avenir-Heavy" font-weight="bold" font-size="24.0" fill="#FFFFFF" transform="matrix(1.00, 0.00, -0.00, -1.00, 357.7, 311.0)">m</text><text xml:space="preserve" font-family="Avenir-Heavy" font-weight="bold" font-size="24.0" fill="#FFFFFF" transform="matrix(1.00, 0.00, -0.00, -1.00, 378.6, 311.0)">p</text><text xml:space="preserve" font-family="Avenir-Heavy" font-weight="bold" font-size="24.0" fill="#FFFFFF" transform="matrix(1.00, 0.00, -0.00, -1.00, 393.7, 311.0)">o</text><text xml:space="preserve" font-family="Avenir-Heavy" font-weight="bold" font-size="24.0" fill="#FFFFFF" transform="matrix(1.00, 0.00, -0.00, -1.00, 408.3, 311.0)">n</text><text xml:space="preserve" font-family="Avenir-Heavy" font-weight="bold" font-size="24.0" fill="#FFFFFF" transform="matrix(1.00, 0.00, -0.00, -1.00, 422.1, 311.0)">e</text><text xml:space="preserve" font-family="Avenir-Heavy" font-weight="bold" font-size="24.0" fill="#FFFFFF" transform="matrix(1.00, 0.00, -0.00, -1.00, 435.9, 311.0)">n</text><text xml:space="preserve" font-family="Avenir-Heavy" font-weight="bold" font-size="24.0" fill="#FFFFFF" transform="matrix(1.00, 0.00, -0.00, -1.00, 449.6, 311.0)">t</text><text xml:space="preserve" font-family="Avenir-Heavy" font-weight="bold" font-size="24.0" fill="#FFFFFF" transform="matrix(1.00, 0.00, -0.00, -1.00, 459.0, 311.0)">s</text><text xml:space="preserve" font-family="Avenir-Heavy" font-weight="bold" font-size="24.0" fill="#FFFFFF" transform="matrix(1.00, 0.00, -0.00, -1.00, 469.6, 311.0)">?</text><text xml:space="preserve" font-family="Avenir-Heavy" font-weight="bold" font-size="24.0" fill="#FFFFFF" transform="matrix(1.00, 0.00, -0.00, -1.00, 482.1, 311.0)"> </text><text xml:space="preserve" font-family="Avenir-Roman" font-size="18.0" fill="#FFFFFF" transform="matrix(1.00, 0.00, -0.00, -1.00, 68.0, 273.0)">Y</text><text xml:space="preserve" font-family="Avenir-Roman" font-size="18.0" fill="#FFFFFF" transform="matrix(1.00, 0.00, -0.00, -1.00, 76.7, 273.0)">o</text><text xml:space="preserve" font-family="Avenir-Roman" font-size="18.0" fill="#FFFFFF" transform="matrix(1.00, 0.00, -0.00, -1.00, 87.4, 273.0)">u</text><text xml:space="preserve" font-family="Avenir-Roman" font-size="18.0" fill="#FFFFFF" transform="matrix(1.00, 0.00, -0.00, -1.00, 97.4, 273.0)">’</text><text xml:space="preserve" font-family="Avenir-Roman" font-size="18.0" fill="#FFFFFF" transform="matrix(1.00, 0.00, -0.00, -1.00, 102.4, 273.0)">l</text><text xml:space="preserve" font-family="Avenir-Roman" font-size="18.0" fill="#FFFFFF" transform="matrix(1.00, 0.00, -0.00, -1.00, 106.7, 273.0)">l</text><text xml:space="preserve" font-family="Avenir-Roman" font-size="18.0" fill="#FFFFFF" transform="matrix(1.00, 0.00, -0.00, -1.00, 111.1, 273.0)"> </text><text xml:space="preserve" font-family="Avenir-Roman" font-size="18.0" fill="#FFFFFF" transform="matrix(1.00, 0.00, -0.00, -1.00, 116.1, 273.0)">p</text><text xml:space="preserve" font-family="Avenir-Roman" font-size="18.0" fill="#FFFFFF" transform="matrix(1.00, 0.00, -0.00, -1.00, 127.1, 273.0)">r</text><text xml:space="preserve" font-family="Avenir-Roman" font-size="18.0" fill="#FFFFFF" transform="matrix(1.00, 0.00, -0.00, -1.00, 133.1, 273.0)">o</text><text xml:space="preserve" font-family="Avenir-Roman" font-size="18.0" fill="#FFFFFF" transform="matrix(1.00, 0.00, -0.00, -1.00, 143.8, 273.0)">b</text><text xml:space="preserve" font-family="Avenir-Roman" font-size="18.0" fill="#FFFFFF" transform="matrix(1.00, 0.00, -0.00, -1.00, 154.8, 273.0)">a</text><text xml:space="preserve" font-family="Avenir-Roman" font-size="18.0" fill="#FFFFFF" transform="matrix(1.00, 0.00, -0.00, -1.00, 164.1, 273.0)">b</text><text xml:space="preserve" font-family="Avenir-Roman" font-size="18.0" fill="#FFFFFF" transform="matrix(1.00, 0.00, -0.00, -1.00, 175.1, 273.0)">l</text><text xml:space="preserve" font-family="Avenir-Roman" font-size="18.0" fill="#FFFFFF" transform="matrix(1.00, 0.00, -0.00, -1.00, 179.4, 273.0)">y</text><text xml:space="preserve" font-family="Avenir-Roman" font-size="18.0" fill="#FFFFFF" transform="matrix(1.00, 0.00, -0.00, -1.00, 188.1, 273.0)"> </text><text xml:space="preserve" font-family="Avenir-Roman" font-size="18.0" fill="#FFFFFF" transform="matrix(1.00, 0.00, -0.00, -1.00, 193.1, 273.0)">n</text><text xml:space="preserve" font-family="Avenir-Roman" font-size="18.0" fill="#FFFFFF" transform="matrix(1.00, 0.00, -0.00, -1.00, 203.1, 273.0)">e</text><text xml:space="preserve" font-family="Avenir-Roman" font-size="18.0" fill="#FFFFFF" transform="matrix(1.00, 0.00, -0.00, -1.00, 213.1, 273.0)">e</text><text xml:space="preserve" font-family="Avenir-Roman" font-size="18.0" fill="#FFFFFF" transform="matrix(1.00, 0.00, -0.00, -1.00, 223.1, 273.0)">d</text><text xml:space="preserve" font-family="Avenir-Roman" font-size="18.0" fill="#FFFFFF" transform="matrix(1.00, 0.00, -0.00, -1.00, 234.1, 273.0)">…</text><text xml:space="preserve" font-family="Avenir-Roman" font-size="18.0" fill="#FFFFFF" transform="matrix(1.00, 0.00, -0.00, -1.00, 252.1, 273.0)"> </text><text xml:space="preserve" font-family="Avenir-Roman" font-size="18.0" fill="#FFFFFF" transform="matrix(1.00, 0.00, -0.00, -1.00, 67.8, 205.1)">-</text><text xml:space="preserve" font-family="Avenir-Roman" font-size="18.0" fill="#FFFFFF" transform="matrix(1.00, 0.00, -0.00, -1.00, 82.0, 205.0)">T</text><text xml:space="preserve" font-family="Avenir-Roman" font-size="18.0" fill="#FFFFFF" transform="matrix(1.00, 0.00, -0.00, -1.00, 90.3, 205.0)">e</text><text xml:space="preserve" font-family="Avenir-Roman" font-size="18.0" fill="#FFFFFF" transform="matrix(1.00, 0.00, -0.00, -1.00, 100.3, 205.0)">s</text><text xml:space="preserve" font-family="Avenir-Roman" font-size="18.0" fill="#FFFFFF" transform="matrix(1.00, 0.00, -0.00, -1.00, 108.0, 205.0)">t</text><text xml:space="preserve" font-family="Avenir-Roman" font-size="18.0" fill="#FFFFFF" transform="matrix(1.00, 0.00, -0.00, -1.00, 114.3, 205.0)"> </text><text xml:space="preserve" font-family="Avenir-Roman" font-size="18.0" fill="#FFFFFF" transform="matrix(1.00, 0.00, -0.00, -1.00, 119.3, 205.0)">r</text><text xml:space="preserve" font-family="Avenir-Roman" font-size="18.0" fill="#FFFFFF" transform="matrix(1.00, 0.00, -0.00, -1.00, 125.7, 205.0)">u</text><text xml:space="preserve" font-family="Avenir-Roman" font-size="18.0" fill="#FFFFFF" transform="matrix(1.00, 0.00, -0.00, -1.00, 135.7, 205.0)">n</text><text xml:space="preserve" font-family="Avenir-Roman" font-size="18.0" fill="#FFFFFF" transform="matrix(1.00, 0.00, -0.00, -1.00, 145.7, 205.0)">n</text><text xml:space="preserve" font-family="Avenir-Roman" font-size="18.0" fill="#FFFFFF" transform="matrix(1.00, 0.00, -0.00, -1.00, 155.7, 205.0)">e</text><text xml:space="preserve" font-family="Avenir-Roman" font-size="18.0" fill="#FFFFFF" transform="matrix(1.00, 0.00, -0.00, -1.00, 165.7, 205.0)">r</text><text xml:space="preserve" font-family="Avenir-Roman" font-size="18.0" fill="#FFFFFF" transform="matrix(1.00, 0.00, -0.00, -1.00, 172.1, 205.0)"> </text><text xml:space="preserve" font-family="Avenir-Roman" font-size="18.0" fill="#FFFFFF" transform="matrix(1.00, 0.00, -0.00, -1.00, 67.8, 171.1)">-</text><text xml:space="preserve" font-family="Avenir-Roman" font-size="18.0" fill="#FFFFFF" transform="matrix(1.00, 0.00, -0.00, -1.00, 82.0, 171.0)">A</text><text xml:space="preserve" font-family="Avenir-Roman" font-size="18.0" fill="#FFFFFF" transform="matrix(1.00, 0.00, -0.00, -1.00, 94.7, 171.0)">s</text><text xml:space="preserve" font-family="Avenir-Roman" font-size="18.0" fill="#FFFFFF" transform="matrix(1.00, 0.00, -0.00, -1.00, 102.3, 171.0)">s</text><text xml:space="preserve" font-family="Avenir-Roman" font-size="18.0" fill="#FFFFFF" transform="matrix(1.00, 0.00, -0.00, -1.00, 110.0, 171.0)">e</text><text xml:space="preserve" font-family="Avenir-Roman" font-size="18.0" fill="#FFFFFF" transform="matrix(1.00, 0.00, -0.00, -1.00, 120.0, 171.0)">r</text><text xml:space="preserve" font-family="Avenir-Roman" font-size="18.0" fill="#FFFFFF" transform="matrix(1.00, 0.00, -0.00, -1.00, 126.4, 171.0)">t</text><text xml:space="preserve" font-family="Avenir-Roman" font-size="18.0" fill="#FFFFFF" transform="matrix(1.00, 0.00, -0.00, -1.00, 132.7, 171.0)">i</text><text xml:space="preserve" font-family="Avenir-Roman" font-size="18.0" fill="#FFFFFF" transform="matrix(1.00, 0.00, -0.00, -1.00, 137.0, 171.0)">o</text><text xml:space="preserve" font-family="Avenir-Roman" font-size="18.0" fill="#FFFFFF" transform="matrix(1.00, 0.00, -0.00, -1.00, 147.7, 171.0)">n</text><text xml:space="preserve" font-family="Avenir-Roman" font-size="18.0" fill="#FFFFFF" transform="matrix(1.00, 0.00, -0.00, -1.00, 157.7, 171.0)"> </text><text xml:space="preserve" font-family="Avenir-Roman" font-size="18.0" fill="#FFFFFF" transform="matrix(1.00, 0.00, -0.00, -1.00, 162.7, 171.0)">l</text><text xml:space="preserve" font-family="Avenir-Roman" font-size="18.0" fill="#FFFFFF" transform="matrix(1.00, 0.00, -0.00, -1.00, 167.1, 171.0)">i</text><text xml:space="preserve" font-family="Avenir-Roman" font-size="18.0" fill="#FFFFFF" transform="matrix(1.00, 0.00, -0.00, -1.00, 171.4, 171.0)">b</text><text xml:space="preserve" font-family="Avenir-Roman" font-size="18.0" fill="#FFFFFF" transform="matrix(1.00, 0.00, -0.00, -1.00, 182.4, 171.0)">r</text><text xml:space="preserve" font-family="Avenir-Roman" font-size="18.0" fill="#FFFFFF" transform="matrix(1.00, 0.00, -0.00, -1.00, 188.7, 171.0)">a</text><text xml:space="preserve" font-family="Avenir-Roman" font-size="18.0" fill="#FFFFFF" transform="matrix(1.00, 0.00, -0.00, -1.00, 198.1, 171.0)">r</text><text xml:space="preserve" font-family="Avenir-Roman" font-size="18.0" fill="#FFFFFF" transform="matrix(1.00, 0.00, -0.00, -1.00, 204.4, 171.0)">y</text><text xml:space="preserve" font-family="Avenir-Roman" font-size="18.0" fill="#FFFFFF" transform="matrix(1.00, 0.00, -0.00, -1.00, 213.1, 171.0)"> </text><text xml:space="preserve" font-family="Avenir-Roman" font-size="18.0" fill="#FFFFFF" transform="matrix(1.00, 0.00, -0.00, -1.00, 67.8, 137.1)">-</text><text xml:space="preserve" font-family="Avenir-Roman" font-size="18.0" fill="#FFFFFF" transform="matrix(1.00, 0.00, -0.00, -1.00, 82.0, 137.0)">R</text><text xml:space="preserve" font-family="Avenir-Roman" font-size="18.0" fill="#FFFFFF" transform="matrix(1.00, 0.00, -0.00, -1.00, 93.0, 137.0)">e</text><text xml:space="preserve" font-family="Avenir-Roman" font-size="18.0" fill="#FFFFFF" transform="matrix(1.00, 0.00, -0.00, -1.00, 103.0, 137.0)">a</text><text xml:space="preserve" font-family="Avenir-Roman" font-size="18.0" fill="#FFFFFF" transform="matrix(1.00, 0.00, -0.00, -1.00, 112.3, 137.0)">c</text><text xml:space="preserve" font-family="Avenir-Roman" font-size="18.0" fill="#FFFFFF" transform="matrix(1.00, 0.00, -0.00, -1.00, 121.0, 137.0)">t</text><text xml:space="preserve" font-family="Avenir-Roman" font-size="18.0" fill="#FFFFFF" transform="matrix(1.00, 0.00, -0.00, -1.00, 127.4, 137.0)"> </text><text xml:space="preserve" font-family="Avenir-Roman" font-size="18.0" fill="#FFFFFF" transform="matrix(1.00, 0.00, -0.00, -1.00, 132.4, 137.0)">t</text><text xml:space="preserve" font-family="Avenir-Roman" font-size="18.0" fill="#FFFFFF" transform="matrix(1.00, 0.00, -0.00, -1.00, 138.7, 137.0)">e</text><text xml:space="preserve" font-family="Avenir-Roman" font-size="18.0" fill="#FFFFFF" transform="matrix(1.00, 0.00, -0.00, -1.00, 148.7, 137.0)">s</text><text xml:space="preserve" font-family="Avenir-Roman" font-size="18.0" fill="#FFFFFF" transform="matrix(1.00, 0.00, -0.00, -1.00, 156.4, 137.0)">t</text><text xml:space="preserve" font-family="Avenir-Roman" font-size="18.0" fill="#FFFFFF" transform="matrix(1.00, 0.00, -0.00, -1.00, 162.7, 137.0)">i</text><text xml:space="preserve" font-family="Avenir-Roman" font-size="18.0" fill="#FFFFFF" transform="matrix(1.00, 0.00, -0.00, -1.00, 167.1, 137.0)">n</text><text xml:space="preserve" font-family="Avenir-Roman" font-size="18.0" fill="#FFFFFF" transform="matrix(1.00, 0.00, -0.00, -1.00, 177.1, 137.0)">g</text><text xml:space="preserve" font-family="Avenir-Roman" font-size="18.0" fill="#FFFFFF" transform="matrix(1.00, 0.00, -0.00, -1.00, 188.1, 137.0)"> </text><text xml:space="preserve" font-family="Avenir-Roman" font-size="18.0" fill="#FFFFFF" transform="matrix(1.00, 0.00, -0.00, -1.00, 193.1, 137.0)">u</text><text xml:space="preserve" font-family="Avenir-Roman" font-size="18.0" fill="#FFFFFF" transform="matrix(1.00, 0.00, -0.00, -1.00, 203.1, 137.0)">t</text><text xml:space="preserve" font-family="Avenir-Roman" font-size="18.0" fill="#FFFFFF" transform="matrix(1.00, 0.00, -0.00, -1.00, 209.4, 137.0)">i</text><text xml:space="preserve" font-family="Avenir-Roman" font-size="18.0" fill="#FFFFFF" transform="matrix(1.00, 0.00, -0.00, -1.00, 213.7, 137.0)">l</text><text xml:space="preserve" font-family="Avenir-Roman" font-size="18.0" fill="#FFFFFF" transform="matrix(1.00, 0.00, -0.00, -1.00, 218.1, 137.0)">i</text><text xml:space="preserve" font-family="Avenir-Roman" font-size="18.0" fill="#FFFFFF" transform="matrix(1.00, 0.00, -0.00, -1.00, 222.4, 137.0)">t</text><text xml:space="preserve" font-family="Avenir-Roman" font-size="18.0" fill="#FFFFFF" transform="matrix(1.00, 0.00, -0.00, -1.00, 228.8, 137.0)">i</text><text xml:space="preserve" font-family="Avenir-Roman" font-size="18.0" fill="#FFFFFF" transform="matrix(1.00, 0.00, -0.00, -1.00, 233.1, 137.0)">e</text><text xml:space="preserve" font-family="Avenir-Roman" font-size="18.0" fill="#FFFFFF" transform="matrix(1.00, 0.00, -0.00, -1.00, 243.1, 137.0)">s</text><text xml:space="preserve" font-family="Avenir-Roman" font-size="18.0" fill="#FFFFFF" transform="matrix(1.00, 0.00, -0.00, -1.00, 250.8, 137.0)"> </text><text xml:space="preserve" font-family="Avenir-Roman" font-size="18.0" fill="#FFFFFF" transform="matrix(1.00, 0.00, -0.00, -1.00, 67.8, 103.1)">-</text><text xml:space="preserve" font-family="Avenir-Roman" font-size="18.0" fill="#FFFFFF" transform="matrix(1.00, 0.00, -0.00, -1.00, 82.0, 103.0)">M</text><text xml:space="preserve" font-family="Avenir-Roman" font-size="18.0" fill="#FFFFFF" transform="matrix(1.00, 0.00, -0.00, -1.00, 98.3, 103.0)">o</text><text xml:space="preserve" font-family="Avenir-Roman" font-size="18.0" fill="#FFFFFF" transform="matrix(1.00, 0.00, -0.00, -1.00, 109.0, 103.0)">c</text><text xml:space="preserve" font-family="Avenir-Roman" font-size="18.0" fill="#FFFFFF" transform="matrix(1.00, 0.00, -0.00, -1.00, 117.7, 103.0)">k</text><text xml:space="preserve" font-family="Avenir-Roman" font-size="18.0" fill="#FFFFFF" transform="matrix(1.00, 0.00, -0.00, -1.00, 126.7, 103.0)">s</text><text xml:space="preserve" font-family="Avenir-Roman" font-size="18.0" fill="#FFFFFF" transform="matrix(1.00, 0.00, -0.00, -1.00, 134.4, 103.0)"> </text><text xml:space="preserve" font-family="Avenir-Roman" font-size="18.0" fill="#FFFFFF" transform="matrix(1.00, 0.00, -0.00, -1.00, 139.4, 103.0)">a</text><text xml:space="preserve" font-family="Avenir-Roman" font-size="18.0" fill="#FFFFFF" transform="matrix(1.00, 0.00, -0.00, -1.00, 148.7, 103.0)">n</text><text xml:space="preserve" font-family="Avenir-Roman" font-size="18.0" fill="#FFFFFF" transform="matrix(1.00, 0.00, -0.00, -1.00, 158.7, 103.0)">d</text><text xml:space="preserve" font-family="Avenir-Roman" font-size="18.0" fill="#FFFFFF" transform="matrix(1.00, 0.00, -0.00, -1.00, 169.7, 103.0)"> </text><text xml:space="preserve" font-family="Avenir-Roman" font-size="18.0" fill="#FFFFFF" transform="matrix(1.00, 0.00, -0.00, -1.00, 174.7, 103.0)">s</text><text xml:space="preserve" font-family="Avenir-Roman" font-size="18.0" fill="#FFFFFF" transform="matrix(1.00, 0.00, -0.00, -1.00, 182.4, 103.0)">t</text><text xml:space="preserve" font-family="Avenir-Roman" font-size="18.0" fill="#FFFFFF" transform="matrix(1.00, 0.00, -0.00, -1.00, 188.7, 103.0)">u</text><text xml:space="preserve" font-family="Avenir-Roman" font-size="18.0" fill="#FFFFFF" transform="matrix(1.00, 0.00, -0.00, -1.00, 198.7, 103.0)">b</text><text xml:space="preserve" font-family="Avenir-Roman" font-size="18.0" fill="#FFFFFF" transform="matrix(1.00, 0.00, -0.00, -1.00, 209.7, 103.0)">s</text></g></svg>