<?xml version="1.0" encoding="UTF-8" standalone="no"?><svg xmlns="http://www.w3.org/2000/svg" xmlns:xlink="http://www.w3.org/1999/xlink" clip-rule="evenodd" stroke-miterlimit="4.00" viewBox="0 0 720 405"><desc>SVG generated by Keynote</desc><defs></defs><g transform="matrix(1.00, 0.00, -0.00, -1.00, 0.0, 405.0)"><path d="M 0.0 405.0 L 720.0 405.0 L 720.0 0.0 L 0.0 0.0 Z M 0.0 405.0 " fill="#FFFFFF"></path><text xml:space="preserve" font-family="Avenir-Heavy" font-weight="bold" font-size="24.0" fill="#000000" transform="matrix(1.00, 0.00, -0.00, -1.00, 68.0, 311.0)">S</text><text xml:space="preserve" font-family="Avenir-Heavy" font-weight="bold" font-size="24.0" fill="#000000" transform="matrix(1.00, 0.00, -0.00, -1.00, 81.8, 311.0)">o</text><text xml:space="preserve" font-family="Avenir-Heavy" font-weight="bold" font-size="24.0" fill="#000000" transform="matrix(1.00, 0.00, -0.00, -1.00, 96.4, 311.0)"> </text><text xml:space="preserve" font-family="Avenir-Heavy" font-weight="bold" font-size="24.0" fill="#000000" transform="matrix(1.00, 0.00, -0.00, -1.00, 103.5, 311.0)">y</text><text xml:space="preserve" font-family="Avenir-Heavy" font-weight="bold" font-size="24.0" fill="#000000" transform="matrix(1.00, 0.00, -0.00, -1.00, 116.0, 311.0)">o</text><text xml:space="preserve" font-family="Avenir-Heavy" font-weight="bold" font-size="24.0" fill="#000000" transform="matrix(1.00, 0.00, -0.00, -1.00, 130.6, 311.0)">u</text><text xml:space="preserve" font-family="Avenir-Heavy" font-weight="bold" font-size="24.0" fill="#000000" transform="matrix(1.00, 0.00, -0.00, -1.00, 144.4, 311.0)"> </text><text xml:space="preserve" font-family="Avenir-Heavy" font-weight="bold" font-size="24.0" fill="#000000" transform="matrix(1.00, 0.00, -0.00, -1.00, 151.5, 311.0)">k</text><text xml:space="preserve" font-family="Avenir-Heavy" font-weight="bold" font-size="24.0" fill="#000000" transform="matrix(1.00, 0.00, -0.00, -1.00, 164.4, 311.0)">n</text><text xml:space="preserve" font-family="Avenir-Heavy" font-weight="bold" font-size="24.0" fill="#000000" transform="matrix(1.00, 0.00, -0.00, -1.00, 178.2, 311.0)">o</text><text xml:space="preserve" font-family="Avenir-Heavy" font-weight="bold" font-size="24.0" fill="#000000" transform="matrix(1.00, 0.00, -0.00, -1.00, 192.8, 311.0)">w</text><text xml:space="preserve" font-family="Avenir-Heavy" font-weight="bold" font-size="24.0" fill="#000000" transform="matrix(1.00, 0.00, -0.00, -1.00, 210.1, 311.0)">…</text><text xml:space="preserve" font-family="Avenir-Heavy" font-weight="bold" font-size="24.0" fill="#000000" transform="matrix(1.00, 0.00, -0.00, -1.00, 234.1, 311.0)"> </text><text xml:space="preserve" font-family="Avenir-Medium" font-size="18.0" fill="#000000" transform="matrix(1.00, 0.00, -0.00, -1.00, 67.8, 239.1)">1</text><text xml:space="preserve" font-family="Avenir-Medium" font-size="18.0" fill="#000000" transform="matrix(1.00, 0.00, -0.00, -1.00, 77.8, 239.1)">.</text><text xml:space="preserve" font-family="Avenir-Medium" font-size="18.0" fill="#000000" transform="matrix(1.00, 0.00, -0.00, -1.00, 87.0, 239.0)"> </text><text xml:space="preserve" font-family="Avenir-Medium" font-size="18.0" fill="#000000" transform="matrix(1.00, 0.00, -0.00, -1.00, 92.0, 239.0)"> </text><text xml:space="preserve" font-family="Avenir-Medium" font-size="18.0" fill="#000000" transform="matrix(1.00, 0.00, -0.00, -1.00, 97.0, 239.0)"> </text><text xml:space="preserve" font-family="Avenir-Medium" font-size="18.0" fill="#000000" transform="matrix(1.00, 0.00, -0.00, -1.00, 102.0, 239.0)">E</text><text xml:space="preserve" font-family="Avenir-Medium" font-size="18.0" fill="#000000" transform="matrix(1.00, 0.00, -0.00, -1.00, 113.0, 239.0)">v</text><text xml:space="preserve" font-family="Avenir-Medium" font-size="18.0" fill="#000000" transform="matrix(1.00, 0.00, -0.00, -1.00, 122.0, 239.0)">e</text><text xml:space="preserve" font-family="Avenir-Medium" font-size="18.0" fill="#000000" transform="matrix(1.00, 0.00, -0.00, -1.00, 132.0, 239.0)">r</text><text xml:space="preserve" font-family="Avenir-Medium" font-size="18.0" fill="#000000" transform="matrix(1.00, 0.00, -0.00, -1.00, 138.7, 239.0)">y</text><text xml:space="preserve" font-family="Avenir-Medium" font-size="18.0" fill="#000000" transform="matrix(1.00, 0.00, -0.00, -1.00, 147.7, 239.0)">t</text><text xml:space="preserve" font-family="Avenir-Medium" font-size="18.0" fill="#000000" transform="matrix(1.00, 0.00, -0.00, -1.00, 154.3, 239.0)">h</text><text xml:space="preserve" font-family="Avenir-Medium" font-size="18.0" fill="#000000" transform="matrix(1.00, 0.00, -0.00, -1.00, 164.3, 239.0)">i</text><text xml:space="preserve" font-family="Avenir-Medium" font-size="18.0" fill="#000000" transform="matrix(1.00, 0.00, -0.00, -1.00, 168.7, 239.0)">n</text><text xml:space="preserve" font-family="Avenir-Medium" font-size="18.0" fill="#000000" transform="matrix(1.00, 0.00, -0.00, -1.00, 178.7, 239.0)">g</text><text xml:space="preserve" font-family="Avenir-Medium" font-size="18.0" fill="#000000" transform="matrix(1.00, 0.00, -0.00, -1.00, 189.7, 239.0)"> </text><text xml:space="preserve" font-family="Avenir-Medium" font-size="18.0" fill="#000000" transform="matrix(1.00, 0.00, -0.00, -1.00, 194.7, 239.0)">w</text><text xml:space="preserve" font-family="Avenir-Medium" font-size="18.0" fill="#000000" transform="matrix(1.00, 0.00, -0.00, -1.00, 208.3, 239.0)">o</text><text xml:space="preserve" font-family="Avenir-Medium" font-size="18.0" fill="#000000" transform="matrix(1.00, 0.00, -0.00, -1.00, 219.0, 239.0)">r</text><text xml:space="preserve" font-family="Avenir-Medium" font-size="18.0" fill="#000000" transform="matrix(1.00, 0.00, -0.00, -1.00, 225.7, 239.0)">k</text><text xml:space="preserve" font-family="Avenir-Medium" font-size="18.0" fill="#000000" transform="matrix(1.00, 0.00, -0.00, -1.00, 235.0, 239.0)">s</text><text xml:space="preserve" font-family="Avenir-Medium" font-size="18.0" fill="#000000" transform="matrix(1.00, 0.00, -0.00, -1.00, 243.0, 239.0)"> </text><text xml:space="preserve" font-family="Avenir-Medium" font-size="18.0" fill="#000000" transform="matrix(1.00, 0.00, -0.00, -1.00, 248.0, 239.0)">a</text><text xml:space="preserve" font-family="Avenir-Medium" font-size="18.0" fill="#000000" transform="matrix(1.00, 0.00, -0.00, -1.00, 257.4, 239.0)">s</text><text xml:space="preserve" font-family="Avenir-Medium" font-size="18.0" fill="#000000" transform="matrix(1.00, 0.00, -0.00, -1.00, 265.4, 239.0)"> </text><text xml:space="preserve" font-family="Avenir-Medium" font-size="18.0" fill="#000000" transform="matrix(1.00, 0.00, -0.00, -1.00, 270.4, 239.0)">e</text><text xml:space="preserve" font-family="Avenir-Medium" font-size="18.0" fill="#000000" transform="matrix(1.00, 0.00, -0.00, -1.00, 280.4, 239.0)">x</text><text xml:space="preserve" font-family="Avenir-Medium" font-size="18.0" fill="#000000" transform="matrix(1.00, 0.00, -0.00, -1.00, 289.7, 239.0)">p</text><text xml:space="preserve" font-family="Avenir-Medium" font-size="18.0" fill="#000000" transform="matrix(1.00, 0.00, -0.00, -1.00, 300.7, 239.0)">e</text><text xml:space="preserve" font-family="Avenir-Medium" font-size="18.0" fill="#000000" transform="matrix(1.00, 0.00, -0.00, -1.00, 310.7, 239.0)">c</text><text xml:space="preserve" font-family="Avenir-Medium" font-size="18.0" fill="#000000" transform="matrix(1.00, 0.00, -0.00, -1.00, 319.4, 239.0)">t</text><text xml:space="preserve" font-family="Avenir-Medium" font-size="18.0" fill="#000000" transform="matrix(1.00, 0.00, -0.00, -1.00, 326.1, 239.0)">e</text><text xml:space="preserve" font-family="Avenir-Medium" font-size="18.0" fill="#000000" transform="matrix(1.00, 0.00, -0.00, -1.00, 336.1, 239.0)">d</text><text xml:space="preserve" font-family="Avenir-Medium" font-size="18.0" fill="#000000" transform="matrix(1.00, 0.00, -0.00, -1.00, 347.1, 239.0)"> </text><text xml:space="preserve" font-family="Avenir-Medium" font-size="18.0" fill="#000000" transform="matrix(1.00, 0.00, -0.00, -1.00, 67.8, 205.1)">2</text><text xml:space="preserve" font-family="Avenir-Medium" font-size="18.0" fill="#000000" transform="matrix(1.00, 0.00, -0.00, -1.00, 77.8, 205.1)">.</text><text xml:space="preserve" font-family="Avenir-Medium" font-size="18.0" fill="#000000" transform="matrix(1.00, 0.00, -0.00, -1.00, 87.0, 205.0)"> </text><text xml:space="preserve" font-family="Avenir-Medium" font-size="18.0" fill="#000000" transform="matrix(1.00, 0.00, -0.00, -1.00, 92.0, 205.0)"> </text><text xml:space="preserve" font-family="Avenir-Medium" font-size="18.0" fill="#000000" transform="matrix(1.00, 0.00, -0.00, -1.00, 97.0, 205.0)"> </text><text xml:space="preserve" font-family="Avenir-Medium" font-size="18.0" fill="#000000" transform="matrix(1.00, 0.00, -0.00, -1.00, 102.0, 205.0)">N</text><text xml:space="preserve" font-family="Avenir-Medium" font-size="18.0" fill="#000000" transform="matrix(1.00, 0.00, -0.00, -1.00, 116.3, 205.0)">o</text><text xml:space="preserve" font-family="Avenir-Medium" font-size="18.0" fill="#000000" transform="matrix(1.00, 0.00, -0.00, -1.00, 127.0, 205.0)">t</text><text xml:space="preserve" font-family="Avenir-Medium" font-size="18.0" fill="#000000" transform="matrix(1.00, 0.00, -0.00, -1.00, 133.7, 205.0)">h</text><text xml:space="preserve" font-family="Avenir-Medium" font-size="18.0" fill="#000000" transform="matrix(1.00, 0.00, -0.00, -1.00, 143.7, 205.0)">i</text><text xml:space="preserve" font-family="Avenir-Medium" font-size="18.0" fill="#000000" transform="matrix(1.00, 0.00, -0.00, -1.00, 148.0, 205.0)">n</text><text xml:space="preserve" font-family="Avenir-Medium" font-size="18.0" fill="#000000" transform="matrix(1.00, 0.00, -0.00, -1.00, 158.0, 205.0)">g</text><text xml:space="preserve" font-family="Avenir-Medium" font-size="18.0" fill="#000000" transform="matrix(1.00, 0.00, -0.00, -1.00, 169.0, 205.0)"> </text><text xml:space="preserve" font-family="Avenir-Medium" font-size="18.0" fill="#000000" transform="matrix(1.00, 0.00, -0.00, -1.00, 174.0, 205.0)">i</text><text xml:space="preserve" font-family="Avenir-Medium" font-size="18.0" fill="#000000" transform="matrix(1.00, 0.00, -0.00, -1.00, 178.3, 205.0)">s</text><text xml:space="preserve" font-family="Avenir-Medium" font-size="18.0" fill="#000000" transform="matrix(1.00, 0.00, -0.00, -1.00, 186.3, 205.0)"> </text><text xml:space="preserve" font-family="Avenir-Medium" font-size="18.0" fill="#000000" transform="matrix(1.00, 0.00, -0.00, -1.00, 191.3, 205.0)">b</text><text xml:space="preserve" font-family="Avenir-Medium" font-size="18.0" fill="#000000" transform="matrix(1.00, 0.00, -0.00, -1.00, 202.3, 205.0)">r</text><text xml:space="preserve" font-family="Avenir-Medium" font-size="18.0" fill="#000000" transform="matrix(1.00, 0.00, -0.00, -1.00, 208.7, 205.0)">o</text><text xml:space="preserve" font-family="Avenir-Medium" font-size="18.0" fill="#000000" transform="matrix(1.00, 0.00, -0.00, -1.00, 219.4, 205.0)">k</text><text xml:space="preserve" font-family="Avenir-Medium" font-size="18.0" fill="#000000" transform="matrix(1.00, 0.00, -0.00, -1.00, 228.7, 205.0)">e</text><text xml:space="preserve" font-family="Avenir-Medium" font-size="18.0" fill="#000000" transform="matrix(1.00, 0.00, -0.00, -1.00, 238.7, 205.0)">n</text><image xlink:href="../../178646CA-A2F6-41F2-B11D-5A4DC16EE688/assets/90B2061FB750281D1900C4B66C5D924E.jpeg" width="264.00" height="264.00" transform="matrix(1.00, 0.00, -0.00, -1.00, 458.0, 270.0)"></image></g></svg>