<?xml version="1.0" encoding="UTF-8" standalone="no"?><svg xmlns="http://www.w3.org/2000/svg" xmlns:xlink="http://www.w3.org/1999/xlink" clip-rule="evenodd" stroke-miterlimit="4.00" viewBox="0 0 720 405"><desc>SVG generated by Keynote</desc><defs></defs><g transform="matrix(1.00, 0.00, -0.00, -1.00, 0.0, 405.0)"><path d="M 0.0 405.0 L 720.0 405.0 L 720.0 0.0 L 0.0 0.0 Z M 0.0 405.0 " fill="#FFFFFF"></path><text xml:space="preserve" font-family="Avenir-Heavy" font-weight="bold" font-size="24.0" fill="#000000" transform="matrix(1.00, 0.00, -0.00, -1.00, 43.0, 346.0)">E</text><text xml:space="preserve" font-family="Avenir-Heavy" font-weight="bold" font-size="24.0" fill="#000000" transform="matrix(1.00, 0.00, -0.00, -1.00, 57.7, 346.0)">x</text><text xml:space="preserve" font-family="Avenir-Heavy" font-weight="bold" font-size="24.0" fill="#000000" transform="matrix(1.00, 0.00, -0.00, -1.00, 70.6, 346.0)">a</text><text xml:space="preserve" font-family="Avenir-Heavy" font-weight="bold" font-size="24.0" fill="#000000" transform="matrix(1.00, 0.00, -0.00, -1.00, 83.4, 346.0)">m</text><text xml:space="preserve" font-family="Avenir-Heavy" font-weight="bold" font-size="24.0" fill="#000000" transform="matrix(1.00, 0.00, -0.00, -1.00, 104.3, 346.0)">p</text><text xml:space="preserve" font-family="Avenir-Heavy" font-weight="bold" font-size="24.0" fill="#000000" transform="matrix(1.00, 0.00, -0.00, -1.00, 119.4, 346.0)">l</text><text xml:space="preserve" font-family="Avenir-Heavy" font-weight="bold" font-size="24.0" fill="#000000" transform="matrix(1.00, 0.00, -0.00, -1.00, 125.7, 346.0)">e</text><text xml:space="preserve" font-family="Avenir-Heavy" font-weight="bold" font-size="24.0" fill="#000000" transform="matrix(1.00, 0.00, -0.00, -1.00, 139.5, 346.0)"> </text><text xml:space="preserve" font-family="Avenir-Heavy" font-weight="bold" font-size="24.0" fill="#000000" transform="matrix(1.00, 0.00, -0.00, -1.00, 146.6, 346.0)">3</text><text xml:space="preserve" font-family="Avenir-Heavy" font-weight="bold" font-size="24.0" fill="#000000" transform="matrix(1.00, 0.00, -0.00, -1.00, 160.8, 346.0)"> </text><text xml:space="preserve" font-family="Avenir-Roman" font-size="18.0" fill="#000000" transform="matrix(1.00, 0.00, -0.00, -1.00, 43.0, 315.0)">T</text><text xml:space="preserve" font-family="Avenir-Roman" font-size="18.0" fill="#000000" transform="matrix(1.00, 0.00, -0.00, -1.00, 51.3, 315.0)">e</text><text xml:space="preserve" font-family="Avenir-Roman" font-size="18.0" fill="#000000" transform="matrix(1.00, 0.00, -0.00, -1.00, 61.3, 315.0)">s</text><text xml:space="preserve" font-family="Avenir-Roman" font-size="18.0" fill="#000000" transform="matrix(1.00, 0.00, -0.00, -1.00, 69.0, 315.0)">t</text><text xml:space="preserve" font-family="Avenir-Roman" font-size="18.0" fill="#000000" transform="matrix(1.00, 0.00, -0.00, -1.00, 75.4, 315.0)">i</text><text xml:space="preserve" font-family="Avenir-Roman" font-size="18.0" fill="#000000" transform="matrix(1.00, 0.00, -0.00, -1.00, 79.7, 315.0)">n</text><text xml:space="preserve" font-family="Avenir-Roman" font-size="18.0" fill="#000000" transform="matrix(1.00, 0.00, -0.00, -1.00, 89.7, 315.0)">g</text><text xml:space="preserve" font-family="Avenir-Roman" font-size="18.0" fill="#000000" transform="matrix(1.00, 0.00, -0.00, -1.00, 100.7, 315.0)"> </text><text xml:space="preserve" font-family="Avenir-Roman" font-size="18.0" fill="#000000" transform="matrix(1.00, 0.00, -0.00, -1.00, 105.7, 315.0)">R</text><text xml:space="preserve" font-family="Avenir-Roman" font-size="18.0" fill="#000000" transform="matrix(1.00, 0.00, -0.00, -1.00, 116.7, 315.0)">e</text><text xml:space="preserve" font-family="Avenir-Roman" font-size="18.0" fill="#000000" transform="matrix(1.00, 0.00, -0.00, -1.00, 126.7, 315.0)">a</text><text xml:space="preserve" font-family="Avenir-Roman" font-size="18.0" fill="#000000" transform="matrix(1.00, 0.00, -0.00, -1.00, 136.0, 315.0)">c</text><text xml:space="preserve" font-family="Avenir-Roman" font-size="18.0" fill="#000000" transform="matrix(1.00, 0.00, -0.00, -1.00, 144.7, 315.0)">t</text><text xml:space="preserve" font-family="Avenir-Roman" font-size="18.0" fill="#000000" transform="matrix(1.00, 0.00, -0.00, -1.00, 151.1, 315.0)"> </text><text xml:space="preserve" font-family="Avenir-Roman" font-size="18.0" fill="#000000" transform="matrix(1.00, 0.00, -0.00, -1.00, 156.1, 315.0)">s</text><text xml:space="preserve" font-family="Avenir-Roman" font-size="18.0" fill="#000000" transform="matrix(1.00, 0.00, -0.00, -1.00, 163.7, 315.0)">t</text><text xml:space="preserve" font-family="Avenir-Roman" font-size="18.0" fill="#000000" transform="matrix(1.00, 0.00, -0.00, -1.00, 170.1, 315.0)">a</text><text xml:space="preserve" font-family="Avenir-Roman" font-size="18.0" fill="#000000" transform="matrix(1.00, 0.00, -0.00, -1.00, 179.4, 315.0)">t</text><text xml:space="preserve" font-family="Avenir-Roman" font-size="18.0" fill="#000000" transform="matrix(1.00, 0.00, -0.00, -1.00, 185.7, 315.0)">e</text><text xml:space="preserve" font-family="Avenir-Roman" font-size="18.0" fill="#000000" transform="matrix(1.00, 0.00, -0.00, -1.00, 195.7, 315.0)"> </text><text xml:space="preserve" font-family="Avenir-Roman" font-size="18.0" fill="#000000" transform="matrix(1.00, 0.00, -0.00, -1.00, 200.8, 315.0)">a</text><text xml:space="preserve" font-family="Avenir-Roman" font-size="18.0" fill="#000000" transform="matrix(1.00, 0.00, -0.00, -1.00, 210.1, 315.0)">n</text><text xml:space="preserve" font-family="Avenir-Roman" font-size="18.0" fill="#000000" transform="matrix(1.00, 0.00, -0.00, -1.00, 220.1, 315.0)">d</text><text xml:space="preserve" font-family="Avenir-Roman" font-size="18.0" fill="#000000" transform="matrix(1.00, 0.00, -0.00, -1.00, 231.1, 315.0)"> </text><text xml:space="preserve" font-family="Avenir-Roman" font-size="18.0" fill="#000000" transform="matrix(1.00, 0.00, -0.00, -1.00, 236.1, 315.0)">l</text><text xml:space="preserve" font-family="Avenir-Roman" font-size="18.0" fill="#000000" transform="matrix(1.00, 0.00, -0.00, -1.00, 240.4, 315.0)">i</text><text xml:space="preserve" font-family="Avenir-Roman" font-size="18.0" fill="#000000" transform="matrix(1.00, 0.00, -0.00, -1.00, 244.8, 315.0)">f</text><text xml:space="preserve" font-family="Avenir-Roman" font-size="18.0" fill="#000000" transform="matrix(1.00, 0.00, -0.00, -1.00, 250.4, 315.0)">e</text><text xml:space="preserve" font-family="Avenir-Roman" font-size="18.0" fill="#000000" transform="matrix(1.00, 0.00, -0.00, -1.00, 260.4, 315.0)">c</text><text xml:space="preserve" font-family="Avenir-Roman" font-size="18.0" fill="#000000" transform="matrix(1.00, 0.00, -0.00, -1.00, 269.1, 315.0)">y</text><text xml:space="preserve" font-family="Avenir-Roman" font-size="18.0" fill="#000000" transform="matrix(1.00, 0.00, -0.00, -1.00, 277.8, 315.0)">c</text><text xml:space="preserve" font-family="Avenir-Roman" font-size="18.0" fill="#000000" transform="matrix(1.00, 0.00, -0.00, -1.00, 286.5, 315.0)">l</text><text xml:space="preserve" font-family="Avenir-Roman" font-size="18.0" fill="#000000" transform="matrix(1.00, 0.00, -0.00, -1.00, 290.8, 315.0)">e</text><text xml:space="preserve" font-family="Avenir-Roman" font-size="18.0" fill="#000000" transform="matrix(1.00, 0.00, -0.00, -1.00, 300.8, 315.0)"> </text><text xml:space="preserve" font-family="Avenir-Roman" font-size="18.0" fill="#000000" transform="matrix(1.00, 0.00, -0.00, -1.00, 305.8, 315.0)">m</text><text xml:space="preserve" font-family="Avenir-Roman" font-size="18.0" fill="#000000" transform="matrix(1.00, 0.00, -0.00, -1.00, 321.1, 315.0)">e</text><text xml:space="preserve" font-family="Avenir-Roman" font-size="18.0" fill="#000000" transform="matrix(1.00, 0.00, -0.00, -1.00, 331.1, 315.0)">t</text><text xml:space="preserve" font-family="Avenir-Roman" font-size="18.0" fill="#000000" transform="matrix(1.00, 0.00, -0.00, -1.00, 337.5, 315.0)">h</text><text xml:space="preserve" font-family="Avenir-Roman" font-size="18.0" fill="#000000" transform="matrix(1.00, 0.00, -0.00, -1.00, 347.5, 315.0)">o</text><text xml:space="preserve" font-family="Avenir-Roman" font-size="18.0" fill="#000000" transform="matrix(1.00, 0.00, -0.00, -1.00, 358.2, 315.0)">d</text><text xml:space="preserve" font-family="Avenir-Roman" font-size="18.0" fill="#000000" transform="matrix(1.00, 0.00, -0.00, -1.00, 369.2, 315.0)">s</text><text xml:space="preserve" font-family="Avenir-Roman" font-size="18.0" fill="#000000" transform="matrix(1.00, 0.00, -0.00, -1.00, 376.9, 315.0)"> </text><text xml:space="preserve" font-family="Avenir-Roman" font-size="18.0" fill="#000000" transform="matrix(1.00, 0.00, -0.00, -1.00, 381.9, 315.0)">u</text><text xml:space="preserve" font-family="Avenir-Roman" font-size="18.0" fill="#000000" transform="matrix(1.00, 0.00, -0.00, -1.00, 391.9, 315.0)">s</text><text xml:space="preserve" font-family="Avenir-Roman" font-size="18.0" fill="#000000" transform="matrix(1.00, 0.00, -0.00, -1.00, 399.5, 315.0)">i</text><text xml:space="preserve" font-family="Avenir-Roman" font-size="18.0" fill="#000000" transform="matrix(1.00, 0.00, -0.00, -1.00, 403.9, 315.0)">n</text><text xml:space="preserve" font-family="Avenir-Roman" font-size="18.0" fill="#000000" transform="matrix(1.00, 0.00, -0.00, -1.00, 413.9, 315.0)">g</text><text xml:space="preserve" font-family="Avenir-Roman" font-size="18.0" fill="#000000" transform="matrix(1.00, 0.00, -0.00, -1.00, 424.9, 315.0)"> </text><text xml:space="preserve" font-family="Avenir-Roman" font-size="18.0" fill="#000000" transform="matrix(1.00, 0.00, -0.00, -1.00, 429.9, 315.0)">s</text><text xml:space="preserve" font-family="Avenir-Roman" font-size="18.0" fill="#000000" transform="matrix(1.00, 0.00, -0.00, -1.00, 437.5, 315.0)">h</text><text xml:space="preserve" font-family="Avenir-Roman" font-size="18.0" fill="#000000" transform="matrix(1.00, 0.00, -0.00, -1.00, 447.5, 315.0)">a</text><text xml:space="preserve" font-family="Avenir-Roman" font-size="18.0" fill="#000000" transform="matrix(1.00, 0.00, -0.00, -1.00, 456.9, 315.0)">l</text><text xml:space="preserve" font-family="Avenir-Roman" font-size="18.0" fill="#000000" transform="matrix(1.00, 0.00, -0.00, -1.00, 461.2, 315.0)">l</text><text xml:space="preserve" font-family="Avenir-Roman" font-size="18.0" fill="#000000" transform="matrix(1.00, 0.00, -0.00, -1.00, 465.5, 315.0)">o</text><text xml:space="preserve" font-family="Avenir-Roman" font-size="18.0" fill="#000000" transform="matrix(1.00, 0.00, -0.00, -1.00, 476.2, 315.0)">w</text><text xml:space="preserve" font-family="Avenir-Roman" font-size="18.0" fill="#000000" transform="matrix(1.00, 0.00, -0.00, -1.00, 489.6, 315.0)"> </text><image xlink:href="8564FC8BA3E806EF23F11FEFA12D2014.png" width="209.00" height="183.00" transform="matrix(1.00, 0.00, -0.00, -1.01, 523.0, 181.0)"></image></g></svg>